<?xml version="1.0" encoding="UTF-8"?>
<svg xmlns="http://www.w3.org/2000/svg" xmlns:xlink="http://www.w3.org/1999/xlink" width="350pt" height="278pt" viewBox="0 0 350 278" version="1.1">
<g id="surface1">
<path style="fill:none;stroke-width:1;stroke-linecap:round;stroke-linejoin:round;stroke:rgb(0%,0%,0%);stroke-opacity:1;stroke-dasharray:4,4;stroke-miterlimit:10;" d="M 112.6 -10.15 L 228.5 -10.15 L 228.5 83.4 L 112.6 83.4 Z M 112.6 -10.15 " transform="matrix(1.25,0,0,1.25,50,123.75)"/>
<path style=" stroke:none;fill-rule:nonzero;fill:rgb(69.803922%,85.098039%,100%);fill-opacity:1;" d="M 204.90625 213.6875 L 322.40625 213.6875 L 322.40625 191.1875 L 204.90625 191.1875 Z M 204.90625 213.6875 "/>
<path style="fill:none;stroke-width:1;stroke-linecap:round;stroke-linejoin:round;stroke:rgb(0%,0%,0%);stroke-opacity:1;stroke-miterlimit:10;" d="M 123.925 53.95 L 217.925 53.95 L 217.925 71.95 L 123.925 71.95 Z M 123.925 53.95 " transform="matrix(1.25,0,0,1.25,50,123.75)"/>
<path style=" stroke:none;fill-rule:nonzero;fill:rgb(0%,0%,0%);fill-opacity:1;" d="M 250.003906 202.085938 C 250.355469 202.496094 250.765625 203.0625 251.253906 203.765625 L 251.722656 203.082031 C 251.136719 202.398438 250.570312 201.792969 250.003906 201.246094 L 250.003906 200.601562 L 251.488281 200.601562 L 251.488281 199.820312 L 250.003906 199.820312 L 250.003906 197.632812 L 249.203125 197.632812 L 249.203125 199.820312 L 247.425781 199.820312 L 247.425781 200.601562 L 249.183594 200.601562 C 248.792969 202.007812 248.128906 203.257812 247.191406 204.351562 L 247.5625 205.269531 C 248.246094 204.3125 248.792969 203.238281 249.203125 202.046875 L 249.203125 207.886719 L 250.003906 207.886719 Z M 256.039062 199.078125 C 255.765625 200.835938 255.238281 202.398438 254.4375 203.746094 C 253.617188 202.359375 253.128906 200.816406 253.011719 199.078125 Z M 253.949219 204.46875 C 253.1875 205.523438 252.210938 206.460938 251.039062 207.242188 L 251.546875 207.886719 C 252.679688 207.144531 253.65625 206.246094 254.4375 205.171875 C 255.140625 206.167969 256.019531 207.066406 257.09375 207.90625 L 257.640625 207.242188 C 256.527344 206.421875 255.628906 205.503906 254.90625 204.488281 C 255.863281 202.984375 256.507812 201.167969 256.820312 199.078125 L 256.820312 198.316406 L 251.761719 198.316406 L 251.761719 199.078125 L 252.210938 199.078125 C 252.367188 201.050781 252.953125 202.847656 253.949219 204.46875 Z M 253.949219 204.46875 "/>
<path style=" stroke:none;fill-rule:nonzero;fill:rgb(0%,0%,0%);fill-opacity:1;" d="M 259.769531 200.933594 L 259.769531 204.664062 L 263.246094 204.664062 L 263.246094 205.445312 L 259.242188 205.445312 L 259.242188 206.089844 L 263.246094 206.089844 L 263.246094 206.929688 L 258.675781 206.929688 L 258.675781 207.652344 L 268.636719 207.652344 L 268.636719 206.929688 L 264.046875 206.929688 L 264.046875 206.089844 L 268.070312 206.089844 L 268.070312 205.445312 L 264.046875 205.445312 L 264.046875 204.664062 L 267.542969 204.664062 L 267.542969 200.933594 L 264.046875 200.933594 L 264.046875 200.210938 L 268.480469 200.210938 L 268.480469 199.507812 L 264.046875 199.507812 L 264.046875 198.648438 C 265.296875 198.570312 266.46875 198.492188 267.542969 198.375 L 267.308594 197.691406 C 265.0625 197.945312 262.484375 198.121094 259.554688 198.199219 L 259.691406 198.863281 C 260.921875 198.824219 262.113281 198.765625 263.246094 198.707031 L 263.246094 199.507812 L 258.832031 199.507812 L 258.832031 200.210938 L 263.246094 200.210938 L 263.246094 200.933594 Z M 266.742188 204.019531 L 264.046875 204.019531 L 264.046875 203.101562 L 266.742188 203.101562 Z M 263.246094 204.019531 L 260.53125 204.019531 L 260.53125 203.101562 L 263.246094 203.101562 Z M 260.53125 202.476562 L 260.53125 201.578125 L 263.246094 201.578125 L 263.246094 202.476562 Z M 264.046875 201.578125 L 266.742188 201.578125 L 266.742188 202.476562 L 264.046875 202.476562 Z M 264.046875 201.578125 "/>
<path style=" stroke:none;fill-rule:nonzero;fill:rgb(0%,0%,0%);fill-opacity:1;" d="M 272.933594 201.929688 L 272.933594 202.652344 L 279.027344 202.652344 L 279.027344 201.929688 Z M 272.132812 203.765625 L 272.132812 204.507812 L 274.59375 204.507812 C 273.8125 205.777344 273.148438 206.558594 272.660156 206.851562 C 272.601562 206.871094 272.5625 206.910156 272.484375 206.929688 L 272.660156 207.613281 C 274.789062 207.476562 276.742188 207.28125 278.519531 207.046875 C 278.753906 207.320312 278.949219 207.613281 279.144531 207.90625 L 279.789062 207.457031 C 279.300781 206.734375 278.578125 205.875 277.660156 204.898438 L 277.054688 205.269531 C 277.386719 205.660156 277.71875 206.03125 278.03125 206.402344 C 276.585938 206.617188 275.121094 206.773438 273.636719 206.871094 C 274.164062 206.402344 274.769531 205.601562 275.453125 204.507812 L 279.769531 204.507812 L 279.769531 203.765625 Z M 278.402344 198.824219 L 278.402344 200.132812 L 271.78125 200.132812 L 271.78125 198.824219 Z M 271.78125 200.855469 L 279.183594 200.855469 L 279.183594 198.0625 L 271 198.0625 L 271 201.792969 C 270.980469 204.058594 270.589844 205.894531 269.808594 207.320312 L 270.394531 207.867188 C 271.3125 206.167969 271.78125 204.136719 271.78125 201.792969 Z M 271.78125 200.855469 "/>
<path style=" stroke:none;fill-rule:nonzero;fill:rgb(0%,0%,0%);fill-opacity:1;" d="M 266.292969 265.0625 L 266.292969 264.789062 C 266.117188 264.730469 266.039062 264.691406 265.960938 264.574219 L 264.28125 261.996094 L 265.414062 260.589844 C 265.628906 260.335938 265.863281 260.199219 266.214844 260.140625 L 266.214844 259.867188 L 264.320312 259.867188 L 264.320312 260.140625 L 264.554688 260.160156 C 264.808594 260.199219 264.886719 260.238281 264.886719 260.414062 C 264.886719 260.589844 264.769531 260.746094 264.457031 261.136719 L 264.066406 261.644531 C 264.007812 261.585938 263.96875 261.527344 263.910156 261.46875 C 263.539062 260.980469 263.265625 260.511719 263.265625 260.355469 C 263.265625 260.21875 263.421875 260.160156 263.792969 260.140625 L 263.792969 259.867188 L 260.980469 259.867188 L 260.980469 260.140625 C 261.273438 260.199219 261.332031 260.238281 261.566406 260.589844 L 263.011719 262.796875 C 262.835938 263.011719 262.933594 262.894531 262.757812 263.109375 L 262.269531 263.753906 C 261.644531 264.59375 261.410156 264.769531 261 264.789062 L 261 265.0625 L 262.894531 265.0625 L 262.894531 264.789062 C 262.503906 264.769531 262.347656 264.691406 262.347656 264.515625 C 262.347656 264.339844 262.621094 263.890625 263.050781 263.363281 C 263.128906 263.285156 263.1875 263.207031 263.246094 263.148438 C 263.382812 263.382812 263.539062 263.617188 263.714844 263.851562 C 263.988281 264.242188 264.085938 264.4375 264.085938 264.574219 C 264.085938 264.710938 263.929688 264.769531 263.578125 264.789062 L 263.578125 265.0625 Z M 266.292969 265.0625 "/>
<path style="fill:none;stroke-width:1;stroke-linecap:round;stroke-linejoin:round;stroke:rgb(0%,0%,0%);stroke-opacity:1;stroke-miterlimit:10;" d="M 170.925 99.05 L 170.925 77.85 " transform="matrix(1.25,0,0,1.25,50,123.75)"/>
<path style="fill:none;stroke-width:1;stroke-linecap:butt;stroke-linejoin:miter;stroke:rgb(0%,0%,0%);stroke-opacity:1;stroke-miterlimit:10;" d="M 170.925 73.85 L 170.925 77.85 M 169.425 77.85 L 170.925 73.85 L 172.425 77.85 " transform="matrix(1.25,0,0,1.25,50,123.75)"/>
<path style="fill-rule:nonzero;fill:rgb(40%,74.901961%,100%);fill-opacity:1;stroke-width:1;stroke-linecap:round;stroke-linejoin:round;stroke:rgb(0%,0%,0%);stroke-opacity:1;stroke-miterlimit:10;" d="M 175.7 -41.15 C 178.3375 -38.5125 178.3375 -34.2375 175.7 -31.6 C 173.0625 -28.965625 168.7875 -28.965625 166.153125 -31.6 C 163.515625 -34.2375 163.515625 -38.5125 166.153125 -41.15 C 168.7875 -43.784375 173.0625 -43.784375 175.7 -41.15 " transform="matrix(1.25,0,0,1.25,50,123.75)"/>
<path style=" stroke:none;fill-rule:nonzero;fill:rgb(0%,0%,0%);fill-opacity:1;" d="M 263.183594 80.539062 L 263.183594 78.332031 L 260.996094 78.332031 L 260.996094 77.414062 L 263.183594 77.414062 L 263.183594 75.226562 L 264.121094 75.226562 L 264.121094 77.414062 L 266.308594 77.414062 L 266.308594 78.332031 L 264.121094 78.332031 L 264.121094 80.539062 Z M 263.183594 80.539062 "/>
<path style=" stroke:none;fill-rule:nonzero;fill:rgb(69.803922%,85.098039%,100%);fill-opacity:1;" d="M 204.90625 177.9375 L 322.40625 177.9375 L 322.40625 155.4375 L 204.90625 155.4375 Z M 204.90625 177.9375 "/>
<path style="fill:none;stroke-width:1;stroke-linecap:round;stroke-linejoin:round;stroke:rgb(0%,0%,0%);stroke-opacity:1;stroke-miterlimit:10;" d="M 123.925 25.35 L 217.925 25.35 L 217.925 43.35 L 123.925 43.35 Z M 123.925 25.35 " transform="matrix(1.25,0,0,1.25,50,123.75)"/>
<path style=" stroke:none;fill-rule:nonzero;fill:rgb(0%,0%,0%);fill-opacity:1;" d="M 244.359375 162.859375 L 244.359375 166.375 L 245.335938 166.375 L 245.667969 167.332031 L 243.929688 167.332031 L 243.929688 168.015625 L 245.042969 168.015625 C 244.925781 168.875 244.769531 169.558594 244.574219 170.066406 C 244.359375 170.613281 244.027344 171.101562 243.578125 171.550781 L 244.066406 172.195312 C 244.59375 171.667969 244.984375 171.082031 245.257812 170.417969 C 245.355469 170.164062 245.433594 169.890625 245.511719 169.558594 L 246.898438 169.558594 C 246.878906 170.339844 246.839844 170.828125 246.78125 171.042969 C 246.722656 171.257812 246.527344 171.355469 246.234375 171.375 L 245.550781 171.375 L 245.746094 172.078125 L 246.449219 172.078125 C 246.898438 172.058594 247.230469 171.902344 247.40625 171.570312 C 247.582031 171.257812 247.679688 170.359375 247.679688 168.894531 L 245.648438 168.894531 C 245.6875 168.621094 245.726562 168.347656 245.785156 168.015625 L 248.03125 168.015625 L 248.03125 167.332031 L 246.429688 167.332031 L 246.097656 166.375 L 247.542969 166.375 L 247.992188 166.921875 C 248.128906 166.726562 248.285156 166.492188 248.441406 166.238281 C 248.695312 167.410156 249.046875 168.445312 249.476562 169.324219 C 249.046875 170.183594 248.480469 170.886719 247.777344 171.453125 L 248.207031 172.15625 C 248.890625 171.609375 249.457031 170.925781 249.90625 170.125 C 250.375 170.945312 250.921875 171.589844 251.546875 172.078125 L 252.015625 171.394531 C 251.332031 170.925781 250.765625 170.222656 250.277344 169.34375 C 250.84375 168.074219 251.136719 166.511719 251.195312 164.675781 L 251.839844 164.675781 L 251.839844 163.914062 L 249.398438 163.914062 C 249.554688 163.328125 249.691406 162.683594 249.789062 162 L 249.046875 161.863281 C 248.792969 163.5625 248.363281 164.949219 247.71875 166.003906 L 247.71875 162.859375 L 246.234375 162.859375 C 246.351562 162.566406 246.449219 162.273438 246.507812 161.960938 L 245.707031 161.84375 C 245.648438 162.195312 245.570312 162.527344 245.453125 162.859375 Z M 248.890625 165.339844 C 248.988281 165.125 249.066406 164.890625 249.164062 164.675781 L 250.453125 164.675781 C 250.433594 166.121094 250.21875 167.390625 249.847656 168.464844 C 249.457031 167.566406 249.144531 166.53125 248.890625 165.339844 Z M 247.015625 165.769531 L 245.0625 165.769531 L 245.0625 164.949219 L 247.015625 164.949219 Z M 245.0625 164.34375 L 245.0625 163.464844 L 247.015625 163.464844 L 247.015625 164.34375 Z M 242.25 162.078125 L 241.722656 162.585938 C 242.464844 163.132812 243.03125 163.660156 243.460938 164.148438 L 243.988281 163.640625 C 243.5 163.113281 242.933594 162.605469 242.25 162.078125 Z M 242.09375 164.8125 L 241.546875 165.339844 C 242.230469 165.90625 242.757812 166.433594 243.167969 166.960938 L 243.695312 166.414062 C 243.265625 165.867188 242.71875 165.339844 242.09375 164.8125 Z M 243.109375 168.152344 C 242.699219 169.382812 242.25 170.59375 241.703125 171.785156 L 242.425781 172.078125 C 242.914062 170.945312 243.382812 169.714844 243.792969 168.40625 Z M 243.109375 168.152344 "/>
<path style=" stroke:none;fill-rule:nonzero;fill:rgb(0%,0%,0%);fill-opacity:1;" d="M 255.863281 165.144531 L 255.863281 165.925781 L 259.085938 165.925781 L 259.085938 167.664062 L 256.625 167.664062 L 256.625 172.195312 L 257.425781 172.195312 L 257.425781 171.570312 L 261.644531 171.570312 L 261.644531 172.175781 L 262.445312 172.175781 L 262.445312 167.664062 L 259.90625 167.664062 L 259.90625 165.925781 L 263.148438 165.925781 L 263.148438 165.144531 L 259.90625 165.144531 L 259.90625 163.269531 C 260.941406 163.132812 261.839844 162.917969 262.621094 162.644531 L 262.230469 161.941406 C 260.609375 162.488281 258.558594 162.761719 256.117188 162.761719 L 256.351562 163.503906 C 257.328125 163.503906 258.226562 163.464844 259.085938 163.386719 L 259.085938 165.144531 Z M 257.425781 170.808594 L 257.425781 168.425781 L 261.644531 168.425781 L 261.644531 170.808594 Z M 253.832031 162.019531 L 253.285156 162.566406 C 254.085938 163.09375 254.730469 163.601562 255.199219 164.070312 L 255.746094 163.523438 C 255.238281 163.015625 254.59375 162.527344 253.832031 162.019531 Z M 253.578125 164.714844 L 253.011719 165.261719 C 253.832031 165.847656 254.476562 166.414062 254.945312 166.941406 L 255.511719 166.375 C 254.984375 165.828125 254.339844 165.261719 253.578125 164.714844 Z M 254.90625 167.703125 C 254.4375 169.070312 253.851562 170.398438 253.207031 171.707031 L 254.007812 172.058594 C 254.59375 170.789062 255.140625 169.421875 255.628906 167.996094 Z M 254.90625 167.703125 "/>
<path style=" stroke:none;fill-rule:nonzero;fill:rgb(0%,0%,0%);fill-opacity:1;" d="M 266.039062 169.695312 C 267.113281 169.011719 268.128906 168.210938 269.085938 167.292969 L 269.085938 169.03125 C 269.085938 169.402344 268.929688 169.578125 268.617188 169.578125 C 268.285156 169.578125 267.972656 169.558594 267.679688 169.558594 L 267.894531 170.300781 L 268.910156 170.300781 C 269.515625 170.300781 269.828125 169.96875 269.828125 169.324219 L 269.828125 167.429688 C 270.511719 167.957031 271.351562 168.679688 272.328125 169.636719 L 272.796875 168.933594 C 271.78125 168.054688 270.804688 167.292969 269.828125 166.609375 L 269.828125 164.890625 C 270.941406 164.285156 271.9375 163.679688 272.835938 163.054688 L 272.835938 162.292969 L 265.863281 162.292969 L 265.863281 163.054688 L 271.625 163.054688 C 271.058594 163.425781 270.21875 163.894531 269.085938 164.441406 L 269.085938 166.375 C 268.011719 167.390625 266.917969 168.230469 265.746094 168.894531 Z M 273.03125 164.34375 L 273.03125 170.828125 L 265.53125 170.828125 L 265.53125 164.34375 L 264.75 164.34375 L 264.75 172.195312 L 265.53125 172.195312 L 265.53125 171.570312 L 273.03125 171.570312 L 273.03125 172.214844 L 273.8125 172.214844 L 273.8125 164.34375 Z M 266.742188 164.695312 L 266.15625 165.066406 C 266.800781 165.691406 267.328125 166.238281 267.71875 166.765625 L 268.34375 166.335938 C 267.972656 165.867188 267.445312 165.320312 266.742188 164.695312 Z M 271.859375 164.617188 C 271.449219 165.300781 270.921875 165.90625 270.335938 166.394531 L 270.921875 166.804688 C 271.527344 166.277344 272.074219 165.652344 272.523438 164.929688 Z M 271.859375 164.617188 "/>
<path style=" stroke:none;fill-rule:nonzero;fill:rgb(0%,0%,0%);fill-opacity:1;" d="M 282.308594 164.363281 L 283.96875 164.363281 C 283.929688 165.886719 283.695312 167.214844 283.246094 168.347656 C 282.796875 167.410156 282.445312 166.277344 282.171875 164.949219 Z M 282.875 169.167969 C 282.367188 170.125 281.683594 170.886719 280.804688 171.492188 L 281.214844 172.175781 C 282.054688 171.570312 282.757812 170.808594 283.304688 169.910156 C 283.851562 170.867188 284.535156 171.628906 285.316406 172.195312 L 285.765625 171.53125 C 284.945312 170.964844 284.261719 170.203125 283.675781 169.1875 C 284.320312 167.859375 284.652344 166.238281 284.710938 164.363281 L 285.453125 164.363281 L 285.453125 163.601562 L 282.484375 163.601562 C 282.5625 163.09375 282.660156 162.566406 282.71875 161.980469 L 281.9375 161.84375 C 281.703125 163.992188 281.253906 165.691406 280.589844 166.941406 L 281.097656 167.566406 C 281.332031 167.15625 281.566406 166.707031 281.761719 166.179688 C 282.074219 167.3125 282.445312 168.289062 282.875 169.167969 Z M 277.542969 167.097656 C 277.464844 167.332031 277.386719 167.566406 277.289062 167.820312 L 275.628906 167.820312 L 275.628906 168.523438 L 276.957031 168.523438 C 276.742188 168.972656 276.488281 169.421875 276.195312 169.929688 C 276.742188 170.125 277.25 170.339844 277.757812 170.554688 C 277.09375 170.925781 276.292969 171.238281 275.375 171.472656 L 275.765625 172.15625 C 276.878906 171.84375 277.816406 171.414062 278.558594 170.90625 C 279.222656 171.199219 279.808594 171.492188 280.296875 171.785156 L 280.726562 171.160156 C 280.238281 170.886719 279.730469 170.652344 279.183594 170.398438 C 279.769531 169.851562 280.179688 169.226562 280.433594 168.484375 L 280.433594 167.820312 L 278.070312 167.820312 C 278.148438 167.605469 278.226562 167.410156 278.304688 167.195312 Z M 278.441406 170.085938 C 278.03125 169.910156 277.601562 169.753906 277.152344 169.597656 C 277.386719 169.265625 277.582031 168.894531 277.757812 168.523438 L 279.691406 168.523438 C 279.4375 169.109375 279.007812 169.636719 278.441406 170.085938 Z M 276.527344 162.078125 L 275.882812 162.292969 C 276.15625 162.722656 276.410156 163.210938 276.644531 163.757812 L 277.230469 163.484375 C 277.015625 162.996094 276.800781 162.527344 276.527344 162.078125 Z M 279.945312 162.058594 C 279.75 162.527344 279.457031 162.996094 279.085938 163.484375 L 279.671875 163.777344 C 280.023438 163.308594 280.296875 162.820312 280.53125 162.3125 Z M 275.667969 164.03125 L 275.667969 164.734375 L 277.25 164.734375 C 276.917969 165.359375 276.3125 165.925781 275.453125 166.433594 L 275.84375 167.078125 C 276.800781 166.433594 277.484375 165.671875 277.855469 164.773438 L 277.855469 166.902344 L 278.617188 166.902344 L 278.617188 165.457031 C 279.007812 165.710938 279.496094 166.082031 280.0625 166.53125 L 280.472656 165.90625 C 279.847656 165.515625 279.222656 165.164062 278.617188 164.871094 L 278.617188 164.734375 L 280.648438 164.734375 L 280.648438 164.03125 L 278.617188 164.03125 L 278.617188 161.882812 L 277.855469 161.882812 L 277.855469 164.03125 Z M 275.667969 164.03125 "/>
<path style="fill:none;stroke-width:1;stroke-linecap:round;stroke-linejoin:round;stroke:rgb(0%,0%,0%);stroke-opacity:1;stroke-miterlimit:10;" d="M 123.925 -80.6 L 217.925 -80.6 L 217.925 -62.6 L 123.925 -62.6 Z M 123.925 -80.6 " transform="matrix(1.25,0,0,1.25,50,123.75)"/>
<path style=" stroke:none;fill-rule:nonzero;fill:rgb(0%,0%,0%);fill-opacity:1;" d="M 244.359375 30.421875 L 244.359375 33.9375 L 245.335938 33.9375 L 245.667969 34.894531 L 243.929688 34.894531 L 243.929688 35.578125 L 245.042969 35.578125 C 244.925781 36.4375 244.769531 37.121094 244.574219 37.628906 C 244.359375 38.175781 244.027344 38.664062 243.578125 39.113281 L 244.066406 39.757812 C 244.59375 39.230469 244.984375 38.644531 245.257812 37.980469 C 245.355469 37.726562 245.433594 37.453125 245.511719 37.121094 L 246.898438 37.121094 C 246.878906 37.902344 246.839844 38.390625 246.78125 38.605469 C 246.722656 38.820312 246.527344 38.917969 246.234375 38.9375 L 245.550781 38.9375 L 245.746094 39.640625 L 246.449219 39.640625 C 246.898438 39.621094 247.230469 39.464844 247.40625 39.132812 C 247.582031 38.820312 247.679688 37.921875 247.679688 36.457031 L 245.648438 36.457031 C 245.6875 36.183594 245.726562 35.910156 245.785156 35.578125 L 248.03125 35.578125 L 248.03125 34.894531 L 246.429688 34.894531 L 246.097656 33.9375 L 247.542969 33.9375 L 247.992188 34.484375 C 248.128906 34.289062 248.285156 34.054688 248.441406 33.800781 C 248.695312 34.972656 249.046875 36.007812 249.476562 36.886719 C 249.046875 37.746094 248.480469 38.449219 247.777344 39.015625 L 248.207031 39.71875 C 248.890625 39.171875 249.457031 38.488281 249.90625 37.6875 C 250.375 38.507812 250.921875 39.152344 251.546875 39.640625 L 252.015625 38.957031 C 251.332031 38.488281 250.765625 37.785156 250.277344 36.90625 C 250.84375 35.636719 251.136719 34.074219 251.195312 32.238281 L 251.839844 32.238281 L 251.839844 31.476562 L 249.398438 31.476562 C 249.554688 30.890625 249.691406 30.246094 249.789062 29.5625 L 249.046875 29.425781 C 248.792969 31.125 248.363281 32.511719 247.71875 33.566406 L 247.71875 30.421875 L 246.234375 30.421875 C 246.351562 30.128906 246.449219 29.835938 246.507812 29.523438 L 245.707031 29.40625 C 245.648438 29.757812 245.570312 30.089844 245.453125 30.421875 Z M 248.890625 32.902344 C 248.988281 32.6875 249.066406 32.453125 249.164062 32.238281 L 250.453125 32.238281 C 250.433594 33.683594 250.21875 34.953125 249.847656 36.027344 C 249.457031 35.128906 249.144531 34.09375 248.890625 32.902344 Z M 247.015625 33.332031 L 245.0625 33.332031 L 245.0625 32.511719 L 247.015625 32.511719 Z M 245.0625 31.90625 L 245.0625 31.027344 L 247.015625 31.027344 L 247.015625 31.90625 Z M 242.25 29.640625 L 241.722656 30.148438 C 242.464844 30.695312 243.03125 31.222656 243.460938 31.710938 L 243.988281 31.203125 C 243.5 30.675781 242.933594 30.167969 242.25 29.640625 Z M 242.09375 32.375 L 241.546875 32.902344 C 242.230469 33.46875 242.757812 33.996094 243.167969 34.523438 L 243.695312 33.976562 C 243.265625 33.429688 242.71875 32.902344 242.09375 32.375 Z M 243.109375 35.714844 C 242.699219 36.945312 242.25 38.15625 241.703125 39.347656 L 242.425781 39.640625 C 242.914062 38.507812 243.382812 37.277344 243.792969 35.96875 Z M 243.109375 35.714844 "/>
<path style=" stroke:none;fill-rule:nonzero;fill:rgb(0%,0%,0%);fill-opacity:1;" d="M 255.863281 32.707031 L 255.863281 33.488281 L 259.085938 33.488281 L 259.085938 35.226562 L 256.625 35.226562 L 256.625 39.757812 L 257.425781 39.757812 L 257.425781 39.132812 L 261.644531 39.132812 L 261.644531 39.738281 L 262.445312 39.738281 L 262.445312 35.226562 L 259.90625 35.226562 L 259.90625 33.488281 L 263.148438 33.488281 L 263.148438 32.707031 L 259.90625 32.707031 L 259.90625 30.832031 C 260.941406 30.695312 261.839844 30.480469 262.621094 30.207031 L 262.230469 29.503906 C 260.609375 30.050781 258.558594 30.324219 256.117188 30.324219 L 256.351562 31.066406 C 257.328125 31.066406 258.226562 31.027344 259.085938 30.949219 L 259.085938 32.707031 Z M 257.425781 38.371094 L 257.425781 35.988281 L 261.644531 35.988281 L 261.644531 38.371094 Z M 253.832031 29.582031 L 253.285156 30.128906 C 254.085938 30.65625 254.730469 31.164062 255.199219 31.632812 L 255.746094 31.085938 C 255.238281 30.578125 254.59375 30.089844 253.832031 29.582031 Z M 253.578125 32.277344 L 253.011719 32.824219 C 253.832031 33.410156 254.476562 33.976562 254.945312 34.503906 L 255.511719 33.9375 C 254.984375 33.390625 254.339844 32.824219 253.578125 32.277344 Z M 254.90625 35.265625 C 254.4375 36.632812 253.851562 37.960938 253.207031 39.269531 L 254.007812 39.621094 C 254.59375 38.351562 255.140625 36.984375 255.628906 35.558594 Z M 254.90625 35.265625 "/>
<path style=" stroke:none;fill-rule:nonzero;fill:rgb(0%,0%,0%);fill-opacity:1;" d="M 266.039062 37.257812 C 267.113281 36.574219 268.128906 35.773438 269.085938 34.855469 L 269.085938 36.59375 C 269.085938 36.964844 268.929688 37.140625 268.617188 37.140625 C 268.285156 37.140625 267.972656 37.121094 267.679688 37.121094 L 267.894531 37.863281 L 268.910156 37.863281 C 269.515625 37.863281 269.828125 37.53125 269.828125 36.886719 L 269.828125 34.992188 C 270.511719 35.519531 271.351562 36.242188 272.328125 37.199219 L 272.796875 36.496094 C 271.78125 35.617188 270.804688 34.855469 269.828125 34.171875 L 269.828125 32.453125 C 270.941406 31.847656 271.9375 31.242188 272.835938 30.617188 L 272.835938 29.855469 L 265.863281 29.855469 L 265.863281 30.617188 L 271.625 30.617188 C 271.058594 30.988281 270.21875 31.457031 269.085938 32.003906 L 269.085938 33.9375 C 268.011719 34.953125 266.917969 35.792969 265.746094 36.457031 Z M 273.03125 31.90625 L 273.03125 38.390625 L 265.53125 38.390625 L 265.53125 31.90625 L 264.75 31.90625 L 264.75 39.757812 L 265.53125 39.757812 L 265.53125 39.132812 L 273.03125 39.132812 L 273.03125 39.777344 L 273.8125 39.777344 L 273.8125 31.90625 Z M 266.742188 32.257812 L 266.15625 32.628906 C 266.800781 33.253906 267.328125 33.800781 267.71875 34.328125 L 268.34375 33.898438 C 267.972656 33.429688 267.445312 32.882812 266.742188 32.257812 Z M 271.859375 32.179688 C 271.449219 32.863281 270.921875 33.46875 270.335938 33.957031 L 270.921875 34.367188 C 271.527344 33.839844 272.074219 33.214844 272.523438 32.492188 Z M 271.859375 32.179688 "/>
<path style=" stroke:none;fill-rule:nonzero;fill:rgb(0%,0%,0%);fill-opacity:1;" d="M 282.308594 31.925781 L 283.96875 31.925781 C 283.929688 33.449219 283.695312 34.777344 283.246094 35.910156 C 282.796875 34.972656 282.445312 33.839844 282.171875 32.511719 Z M 282.875 36.730469 C 282.367188 37.6875 281.683594 38.449219 280.804688 39.054688 L 281.214844 39.738281 C 282.054688 39.132812 282.757812 38.371094 283.304688 37.472656 C 283.851562 38.429688 284.535156 39.191406 285.316406 39.757812 L 285.765625 39.09375 C 284.945312 38.527344 284.261719 37.765625 283.675781 36.75 C 284.320312 35.421875 284.652344 33.800781 284.710938 31.925781 L 285.453125 31.925781 L 285.453125 31.164062 L 282.484375 31.164062 C 282.5625 30.65625 282.660156 30.128906 282.71875 29.542969 L 281.9375 29.40625 C 281.703125 31.554688 281.253906 33.253906 280.589844 34.503906 L 281.097656 35.128906 C 281.332031 34.71875 281.566406 34.269531 281.761719 33.742188 C 282.074219 34.875 282.445312 35.851562 282.875 36.730469 Z M 277.542969 34.660156 C 277.464844 34.894531 277.386719 35.128906 277.289062 35.382812 L 275.628906 35.382812 L 275.628906 36.085938 L 276.957031 36.085938 C 276.742188 36.535156 276.488281 36.984375 276.195312 37.492188 C 276.742188 37.6875 277.25 37.902344 277.757812 38.117188 C 277.09375 38.488281 276.292969 38.800781 275.375 39.035156 L 275.765625 39.71875 C 276.878906 39.40625 277.816406 38.976562 278.558594 38.46875 C 279.222656 38.761719 279.808594 39.054688 280.296875 39.347656 L 280.726562 38.722656 C 280.238281 38.449219 279.730469 38.214844 279.183594 37.960938 C 279.769531 37.414062 280.179688 36.789062 280.433594 36.046875 L 280.433594 35.382812 L 278.070312 35.382812 C 278.148438 35.167969 278.226562 34.972656 278.304688 34.757812 Z M 278.441406 37.648438 C 278.03125 37.472656 277.601562 37.316406 277.152344 37.160156 C 277.386719 36.828125 277.582031 36.457031 277.757812 36.085938 L 279.691406 36.085938 C 279.4375 36.671875 279.007812 37.199219 278.441406 37.648438 Z M 276.527344 29.640625 L 275.882812 29.855469 C 276.15625 30.285156 276.410156 30.773438 276.644531 31.320312 L 277.230469 31.046875 C 277.015625 30.558594 276.800781 30.089844 276.527344 29.640625 Z M 279.945312 29.621094 C 279.75 30.089844 279.457031 30.558594 279.085938 31.046875 L 279.671875 31.339844 C 280.023438 30.871094 280.296875 30.382812 280.53125 29.875 Z M 275.667969 31.59375 L 275.667969 32.296875 L 277.25 32.296875 C 276.917969 32.921875 276.3125 33.488281 275.453125 33.996094 L 275.84375 34.640625 C 276.800781 33.996094 277.484375 33.234375 277.855469 32.335938 L 277.855469 34.464844 L 278.617188 34.464844 L 278.617188 33.019531 C 279.007812 33.273438 279.496094 33.644531 280.0625 34.09375 L 280.472656 33.46875 C 279.847656 33.078125 279.222656 32.726562 278.617188 32.433594 L 278.617188 32.296875 L 280.648438 32.296875 L 280.648438 31.59375 L 278.617188 31.59375 L 278.617188 29.445312 L 277.855469 29.445312 L 277.855469 31.59375 Z M 275.667969 31.59375 "/>
<path style="fill:none;stroke-width:1;stroke-linecap:round;stroke-linejoin:round;stroke:rgb(0%,0%,0%);stroke-opacity:1;stroke-miterlimit:10;" d="M 123.925 -3.25 L 217.925 -3.25 L 217.925 14.75 L 123.925 14.75 Z M 123.925 -3.25 " transform="matrix(1.25,0,0,1.25,50,123.75)"/>
<path style=" stroke:none;fill-rule:nonzero;fill:rgb(0%,0%,0%);fill-opacity:1;" d="M 250.003906 130.585938 C 250.355469 130.996094 250.765625 131.5625 251.253906 132.265625 L 251.722656 131.582031 C 251.136719 130.898438 250.570312 130.292969 250.003906 129.746094 L 250.003906 129.101562 L 251.488281 129.101562 L 251.488281 128.320312 L 250.003906 128.320312 L 250.003906 126.132812 L 249.203125 126.132812 L 249.203125 128.320312 L 247.425781 128.320312 L 247.425781 129.101562 L 249.183594 129.101562 C 248.792969 130.507812 248.128906 131.757812 247.191406 132.851562 L 247.5625 133.769531 C 248.246094 132.8125 248.792969 131.738281 249.203125 130.546875 L 249.203125 136.386719 L 250.003906 136.386719 Z M 256.039062 127.578125 C 255.765625 129.335938 255.238281 130.898438 254.4375 132.246094 C 253.617188 130.859375 253.128906 129.316406 253.011719 127.578125 Z M 253.949219 132.96875 C 253.1875 134.023438 252.210938 134.960938 251.039062 135.742188 L 251.546875 136.386719 C 252.679688 135.644531 253.65625 134.746094 254.4375 133.671875 C 255.140625 134.667969 256.019531 135.566406 257.09375 136.40625 L 257.640625 135.742188 C 256.527344 134.921875 255.628906 134.003906 254.90625 132.988281 C 255.863281 131.484375 256.507812 129.667969 256.820312 127.578125 L 256.820312 126.816406 L 251.761719 126.816406 L 251.761719 127.578125 L 252.210938 127.578125 C 252.367188 129.550781 252.953125 131.347656 253.949219 132.96875 Z M 253.949219 132.96875 "/>
<path style=" stroke:none;fill-rule:nonzero;fill:rgb(0%,0%,0%);fill-opacity:1;" d="M 259.769531 129.433594 L 259.769531 133.164062 L 263.246094 133.164062 L 263.246094 133.945312 L 259.242188 133.945312 L 259.242188 134.589844 L 263.246094 134.589844 L 263.246094 135.429688 L 258.675781 135.429688 L 258.675781 136.152344 L 268.636719 136.152344 L 268.636719 135.429688 L 264.046875 135.429688 L 264.046875 134.589844 L 268.070312 134.589844 L 268.070312 133.945312 L 264.046875 133.945312 L 264.046875 133.164062 L 267.542969 133.164062 L 267.542969 129.433594 L 264.046875 129.433594 L 264.046875 128.710938 L 268.480469 128.710938 L 268.480469 128.007812 L 264.046875 128.007812 L 264.046875 127.148438 C 265.296875 127.070312 266.46875 126.992188 267.542969 126.875 L 267.308594 126.191406 C 265.0625 126.445312 262.484375 126.621094 259.554688 126.699219 L 259.691406 127.363281 C 260.921875 127.324219 262.113281 127.265625 263.246094 127.207031 L 263.246094 128.007812 L 258.832031 128.007812 L 258.832031 128.710938 L 263.246094 128.710938 L 263.246094 129.433594 Z M 266.742188 132.519531 L 264.046875 132.519531 L 264.046875 131.601562 L 266.742188 131.601562 Z M 263.246094 132.519531 L 260.53125 132.519531 L 260.53125 131.601562 L 263.246094 131.601562 Z M 260.53125 130.976562 L 260.53125 130.078125 L 263.246094 130.078125 L 263.246094 130.976562 Z M 264.046875 130.078125 L 266.742188 130.078125 L 266.742188 130.976562 L 264.046875 130.976562 Z M 264.046875 130.078125 "/>
<path style=" stroke:none;fill-rule:nonzero;fill:rgb(0%,0%,0%);fill-opacity:1;" d="M 272.933594 130.429688 L 272.933594 131.152344 L 279.027344 131.152344 L 279.027344 130.429688 Z M 272.132812 132.265625 L 272.132812 133.007812 L 274.59375 133.007812 C 273.8125 134.277344 273.148438 135.058594 272.660156 135.351562 C 272.601562 135.371094 272.5625 135.410156 272.484375 135.429688 L 272.660156 136.113281 C 274.789062 135.976562 276.742188 135.78125 278.519531 135.546875 C 278.753906 135.820312 278.949219 136.113281 279.144531 136.40625 L 279.789062 135.957031 C 279.300781 135.234375 278.578125 134.375 277.660156 133.398438 L 277.054688 133.769531 C 277.386719 134.160156 277.71875 134.53125 278.03125 134.902344 C 276.585938 135.117188 275.121094 135.273438 273.636719 135.371094 C 274.164062 134.902344 274.769531 134.101562 275.453125 133.007812 L 279.769531 133.007812 L 279.769531 132.265625 Z M 278.402344 127.324219 L 278.402344 128.632812 L 271.78125 128.632812 L 271.78125 127.324219 Z M 271.78125 129.355469 L 279.183594 129.355469 L 279.183594 126.5625 L 271 126.5625 L 271 130.292969 C 270.980469 132.558594 270.589844 134.394531 269.808594 135.820312 L 270.394531 136.367188 C 271.3125 134.667969 271.78125 132.636719 271.78125 130.292969 Z M 271.78125 129.355469 "/>
<path style="fill:none;stroke-width:1;stroke-linecap:round;stroke-linejoin:round;stroke:rgb(0%,0%,0%);stroke-opacity:1;stroke-miterlimit:10;" d="M 170.925 53.95 L 170.925 49.25 " transform="matrix(1.25,0,0,1.25,50,123.75)"/>
<path style="fill:none;stroke-width:1;stroke-linecap:butt;stroke-linejoin:miter;stroke:rgb(0%,0%,0%);stroke-opacity:1;stroke-miterlimit:10;" d="M 170.925 45.25 L 170.925 49.25 M 169.425 49.25 L 170.925 45.25 L 172.425 49.25 " transform="matrix(1.25,0,0,1.25,50,123.75)"/>
<path style="fill:none;stroke-width:1;stroke-linecap:round;stroke-linejoin:round;stroke:rgb(0%,0%,0%);stroke-opacity:1;stroke-miterlimit:10;" d="M 170.925 25.35 L 170.925 20.65 " transform="matrix(1.25,0,0,1.25,50,123.75)"/>
<path style="fill:none;stroke-width:1;stroke-linecap:butt;stroke-linejoin:miter;stroke:rgb(0%,0%,0%);stroke-opacity:1;stroke-miterlimit:10;" d="M 170.925 16.65 L 170.925 20.65 M 169.425 20.65 L 170.925 16.65 L 172.425 20.65 " transform="matrix(1.25,0,0,1.25,50,123.75)"/>
<path style="fill:none;stroke-width:1;stroke-linecap:round;stroke-linejoin:round;stroke:rgb(0%,0%,0%);stroke-opacity:1;stroke-miterlimit:10;" d="M 170.925 -3.25 L 170.925 -23.725 " transform="matrix(1.25,0,0,1.25,50,123.75)"/>
<path style="fill:none;stroke-width:1;stroke-linecap:butt;stroke-linejoin:miter;stroke:rgb(0%,0%,0%);stroke-opacity:1;stroke-miterlimit:10;" d="M 170.925 -27.725 L 170.925 -23.725 M 169.425 -23.725 L 170.925 -27.725 L 172.425 -23.725 " transform="matrix(1.25,0,0,1.25,50,123.75)"/>
<path style="fill:none;stroke-width:1;stroke-linecap:round;stroke-linejoin:round;stroke:rgb(0%,0%,0%);stroke-opacity:1;stroke-miterlimit:10;" d="M 170.925 -43.125 L 170.925 -56.7 " transform="matrix(1.25,0,0,1.25,50,123.75)"/>
<path style="fill:none;stroke-width:1;stroke-linecap:butt;stroke-linejoin:miter;stroke:rgb(0%,0%,0%);stroke-opacity:1;stroke-miterlimit:10;" d="M 170.925 -60.7 L 170.925 -56.7 M 169.425 -56.7 L 170.925 -60.7 L 172.425 -56.7 " transform="matrix(1.25,0,0,1.25,50,123.75)"/>
<path style="fill:none;stroke-width:1;stroke-linecap:round;stroke-linejoin:round;stroke:rgb(0%,0%,0%);stroke-opacity:1;stroke-miterlimit:10;" d="M 170.925 90.996875 L 236 90.996875 C 237.65625 90.996875 239 89.653125 239 87.996875 L 239 -34 C 239 -35.65625 237.65625 -37 236 -37 L 184.825 -37 " transform="matrix(1.25,0,0,1.25,50,123.75)"/>
<path style="fill:none;stroke-width:1;stroke-linecap:butt;stroke-linejoin:miter;stroke:rgb(0%,0%,0%);stroke-opacity:1;stroke-miterlimit:10;" d="M 180.825 -37 L 184.825 -37 M 184.825 -35.5 L 180.825 -37 L 184.825 -38.5 " transform="matrix(1.25,0,0,1.25,50,123.75)"/>
<path style=" stroke:none;fill-rule:nonzero;fill:rgb(0%,0%,0%);fill-opacity:1;" d="M 222.71875 97.488281 L 222.640625 97.859375 L 223.65625 97.859375 L 222.660156 102.585938 C 222.40625 103.796875 222.054688 104.402344 221.566406 104.402344 C 221.449219 104.402344 221.351562 104.324219 221.351562 104.226562 C 221.351562 104.109375 221.449219 104.050781 221.449219 103.894531 C 221.449219 103.660156 221.273438 103.484375 221.019531 103.484375 C 220.785156 103.484375 220.589844 103.699219 220.589844 103.953125 C 220.589844 104.34375 220.980469 104.636719 221.488281 104.636719 C 222.503906 104.636719 223.265625 103.542969 223.734375 101.453125 L 224.554688 97.859375 L 225.765625 97.859375 L 225.824219 97.488281 L 224.632812 97.488281 C 224.945312 95.710938 225.375 94.929688 226 94.929688 C 226.15625 94.929688 226.234375 94.988281 226.234375 95.085938 C 226.234375 95.183594 226.136719 95.242188 226.136719 95.417969 C 226.136719 95.691406 226.351562 95.867188 226.546875 95.867188 C 226.800781 95.867188 227.015625 95.632812 227.015625 95.378906 C 227.015625 94.96875 226.605469 94.675781 226.058594 94.675781 C 225.375 94.675781 224.90625 95.066406 224.574219 95.554688 C 224.203125 96.082031 224.007812 96.707031 223.753906 97.488281 Z M 222.71875 97.488281 "/>
<path style=" stroke:none;fill-rule:nonzero;fill:rgb(0%,0%,0%);fill-opacity:1;" d="M 228.796875 104.128906 C 227.214844 102.800781 226.882812 101.53125 226.882812 99.441406 C 226.882812 97.273438 227.234375 96.21875 228.796875 94.890625 L 228.699219 94.714844 C 226.902344 95.769531 225.925781 97.390625 225.925781 99.480469 C 225.925781 101.394531 226.882812 103.289062 228.660156 104.304688 Z M 228.796875 104.128906 "/>
<path style=" stroke:none;fill-rule:nonzero;fill:rgb(0%,0%,0%);fill-opacity:1;" d="M 234.574219 102.3125 L 234.574219 102.039062 C 234.398438 101.980469 234.320312 101.941406 234.242188 101.824219 L 232.5625 99.246094 L 233.695312 97.839844 C 233.910156 97.585938 234.144531 97.449219 234.496094 97.390625 L 234.496094 97.117188 L 232.601562 97.117188 L 232.601562 97.390625 L 232.835938 97.410156 C 233.089844 97.449219 233.167969 97.488281 233.167969 97.664062 C 233.167969 97.839844 233.050781 97.996094 232.738281 98.386719 L 232.347656 98.894531 C 232.289062 98.835938 232.25 98.777344 232.191406 98.71875 C 231.820312 98.230469 231.546875 97.761719 231.546875 97.605469 C 231.546875 97.46875 231.703125 97.410156 232.074219 97.390625 L 232.074219 97.117188 L 229.261719 97.117188 L 229.261719 97.390625 C 229.554688 97.449219 229.613281 97.488281 229.847656 97.839844 L 231.292969 100.046875 C 231.117188 100.261719 231.214844 100.144531 231.039062 100.359375 L 230.550781 101.003906 C 229.925781 101.84375 229.691406 102.019531 229.28125 102.039062 L 229.28125 102.3125 L 231.175781 102.3125 L 231.175781 102.039062 C 230.785156 102.019531 230.628906 101.941406 230.628906 101.765625 C 230.628906 101.589844 230.902344 101.140625 231.332031 100.613281 C 231.410156 100.535156 231.46875 100.457031 231.527344 100.398438 C 231.664062 100.632812 231.820312 100.867188 231.996094 101.101562 C 232.269531 101.492188 232.367188 101.6875 232.367188 101.824219 C 232.367188 101.960938 232.210938 102.019531 231.859375 102.039062 L 231.859375 102.3125 Z M 234.574219 102.3125 "/>
<path style=" stroke:none;fill-rule:nonzero;fill:rgb(0%,0%,0%);fill-opacity:1;" d="M 235.082031 94.890625 C 236.703125 96.179688 236.996094 97.46875 236.996094 99.558594 C 236.996094 101.746094 236.664062 102.800781 235.082031 104.128906 L 235.179688 104.304688 C 236.957031 103.210938 237.953125 101.609375 237.953125 99.539062 C 237.953125 97.625 236.9375 95.75 235.21875 94.714844 Z M 235.082031 94.890625 "/>
<path style=" stroke:none;fill-rule:nonzero;fill:rgb(0%,0%,0%);fill-opacity:1;" d="M 248.300781 99.832031 L 248.300781 99.089844 L 242.03125 99.089844 L 242.03125 99.832031 Z M 248.300781 99.832031 "/>
<path style=" stroke:none;fill-rule:nonzero;fill:rgb(0%,0%,0%);fill-opacity:1;" d="M 257.277344 102.3125 L 257.277344 102.039062 C 257.101562 101.980469 257.023438 101.941406 256.945312 101.824219 L 255.265625 99.246094 L 256.398438 97.839844 C 256.613281 97.585938 256.847656 97.449219 257.199219 97.390625 L 257.199219 97.117188 L 255.304688 97.117188 L 255.304688 97.390625 L 255.539062 97.410156 C 255.792969 97.449219 255.871094 97.488281 255.871094 97.664062 C 255.871094 97.839844 255.753906 97.996094 255.441406 98.386719 L 255.050781 98.894531 C 254.992188 98.835938 254.953125 98.777344 254.894531 98.71875 C 254.523438 98.230469 254.25 97.761719 254.25 97.605469 C 254.25 97.46875 254.40625 97.410156 254.777344 97.390625 L 254.777344 97.117188 L 251.964844 97.117188 L 251.964844 97.390625 C 252.257812 97.449219 252.316406 97.488281 252.550781 97.839844 L 253.996094 100.046875 C 253.820312 100.261719 253.917969 100.144531 253.742188 100.359375 L 253.253906 101.003906 C 252.628906 101.84375 252.394531 102.019531 251.984375 102.039062 L 251.984375 102.3125 L 253.878906 102.3125 L 253.878906 102.039062 C 253.488281 102.019531 253.332031 101.941406 253.332031 101.765625 C 253.332031 101.589844 253.605469 101.140625 254.035156 100.613281 C 254.113281 100.535156 254.171875 100.457031 254.230469 100.398438 C 254.367188 100.632812 254.523438 100.867188 254.699219 101.101562 C 254.972656 101.492188 255.070312 101.6875 255.070312 101.824219 C 255.070312 101.960938 254.914062 102.019531 254.5625 102.039062 L 254.5625 102.3125 Z M 257.277344 102.3125 "/>
<path style=" stroke:none;fill-rule:nonzero;fill:rgb(0%,0%,0%);fill-opacity:1;" d="M 302.949219 71.875 L 302.949219 71.601562 C 302.773438 71.542969 302.695312 71.503906 302.617188 71.386719 L 300.9375 68.808594 L 302.070312 67.402344 C 302.285156 67.148438 302.519531 67.011719 302.871094 66.953125 L 302.871094 66.679688 L 300.976562 66.679688 L 300.976562 66.953125 L 301.210938 66.972656 C 301.464844 67.011719 301.542969 67.050781 301.542969 67.226562 C 301.542969 67.402344 301.425781 67.558594 301.113281 67.949219 L 300.722656 68.457031 C 300.664062 68.398438 300.625 68.339844 300.566406 68.28125 C 300.195312 67.792969 299.921875 67.324219 299.921875 67.167969 C 299.921875 67.03125 300.078125 66.972656 300.449219 66.953125 L 300.449219 66.679688 L 297.636719 66.679688 L 297.636719 66.953125 C 297.929688 67.011719 297.988281 67.050781 298.222656 67.402344 L 299.667969 69.609375 C 299.492188 69.824219 299.589844 69.707031 299.414062 69.921875 L 298.925781 70.566406 C 298.300781 71.40625 298.066406 71.582031 297.65625 71.601562 L 297.65625 71.875 L 299.550781 71.875 L 299.550781 71.601562 C 299.160156 71.582031 299.003906 71.503906 299.003906 71.328125 C 299.003906 71.152344 299.277344 70.703125 299.707031 70.175781 C 299.785156 70.097656 299.84375 70.019531 299.902344 69.960938 C 300.039062 70.195312 300.195312 70.429688 300.371094 70.664062 C 300.644531 71.054688 300.742188 71.25 300.742188 71.386719 C 300.742188 71.523438 300.585938 71.582031 300.234375 71.601562 L 300.234375 71.875 Z M 302.949219 71.875 "/>
<path style=" stroke:none;fill-rule:nonzero;fill:rgb(0%,0%,0%);fill-opacity:1;" d="M 242.375 58.175781 L 242.296875 58.546875 L 243.3125 58.546875 L 242.316406 63.273438 C 242.0625 64.484375 241.710938 65.089844 241.222656 65.089844 C 241.105469 65.089844 241.007812 65.011719 241.007812 64.914062 C 241.007812 64.796875 241.105469 64.738281 241.105469 64.582031 C 241.105469 64.347656 240.929688 64.171875 240.675781 64.171875 C 240.441406 64.171875 240.246094 64.386719 240.246094 64.640625 C 240.246094 65.03125 240.636719 65.324219 241.144531 65.324219 C 242.160156 65.324219 242.921875 64.230469 243.390625 62.140625 L 244.210938 58.546875 L 245.421875 58.546875 L 245.480469 58.175781 L 244.289062 58.175781 C 244.601562 56.398438 245.03125 55.617188 245.65625 55.617188 C 245.8125 55.617188 245.890625 55.675781 245.890625 55.773438 C 245.890625 55.871094 245.792969 55.929688 245.792969 56.105469 C 245.792969 56.378906 246.007812 56.554688 246.203125 56.554688 C 246.457031 56.554688 246.671875 56.320312 246.671875 56.066406 C 246.671875 55.65625 246.261719 55.363281 245.714844 55.363281 C 245.03125 55.363281 244.5625 55.753906 244.230469 56.242188 C 243.859375 56.769531 243.664062 57.394531 243.410156 58.175781 Z M 242.375 58.175781 "/>
<path style=" stroke:none;fill-rule:nonzero;fill:rgb(0%,0%,0%);fill-opacity:1;" d="M 248.453125 64.816406 C 246.871094 63.488281 246.539062 62.21875 246.539062 60.128906 C 246.539062 57.960938 246.890625 56.90625 248.453125 55.578125 L 248.355469 55.402344 C 246.558594 56.457031 245.582031 58.078125 245.582031 60.167969 C 245.582031 62.082031 246.539062 63.976562 248.316406 64.992188 Z M 248.453125 64.816406 "/>
<path style=" stroke:none;fill-rule:nonzero;fill:rgb(0%,0%,0%);fill-opacity:1;" d="M 254.230469 63 L 254.230469 62.726562 C 254.054688 62.667969 253.976562 62.628906 253.898438 62.511719 L 252.21875 59.933594 L 253.351562 58.527344 C 253.566406 58.273438 253.800781 58.136719 254.152344 58.078125 L 254.152344 57.804688 L 252.257812 57.804688 L 252.257812 58.078125 L 252.492188 58.097656 C 252.746094 58.136719 252.824219 58.175781 252.824219 58.351562 C 252.824219 58.527344 252.707031 58.683594 252.394531 59.074219 L 252.003906 59.582031 C 251.945312 59.523438 251.90625 59.464844 251.847656 59.40625 C 251.476562 58.917969 251.203125 58.449219 251.203125 58.292969 C 251.203125 58.15625 251.359375 58.097656 251.730469 58.078125 L 251.730469 57.804688 L 248.917969 57.804688 L 248.917969 58.078125 C 249.210938 58.136719 249.269531 58.175781 249.503906 58.527344 L 250.949219 60.734375 C 250.773438 60.949219 250.871094 60.832031 250.695312 61.046875 L 250.207031 61.691406 C 249.582031 62.53125 249.347656 62.707031 248.9375 62.726562 L 248.9375 63 L 250.832031 63 L 250.832031 62.726562 C 250.441406 62.707031 250.285156 62.628906 250.285156 62.453125 C 250.285156 62.277344 250.558594 61.828125 250.988281 61.300781 C 251.066406 61.222656 251.125 61.144531 251.183594 61.085938 C 251.320312 61.320312 251.476562 61.554688 251.652344 61.789062 C 251.925781 62.179688 252.023438 62.375 252.023438 62.511719 C 252.023438 62.648438 251.867188 62.707031 251.515625 62.726562 L 251.515625 63 Z M 254.230469 63 "/>
<path style=" stroke:none;fill-rule:nonzero;fill:rgb(0%,0%,0%);fill-opacity:1;" d="M 254.738281 55.578125 C 256.359375 56.867188 256.652344 58.15625 256.652344 60.246094 C 256.652344 62.433594 256.320312 63.488281 254.738281 64.816406 L 254.835938 64.992188 C 256.613281 63.898438 257.609375 62.296875 257.609375 60.226562 C 257.609375 58.3125 256.59375 56.4375 254.875 55.402344 Z M 254.738281 55.578125 "/>
<path style="fill:none;stroke-width:1;stroke-linecap:round;stroke-linejoin:round;stroke:rgb(0%,0%,0%);stroke-opacity:1;stroke-miterlimit:10;" d="M 170.78125 -80.6 L 170.59375 -92.1 " transform="matrix(1.25,0,0,1.25,50,123.75)"/>
<path style="fill:none;stroke-width:1;stroke-linecap:butt;stroke-linejoin:miter;stroke:rgb(0%,0%,0%);stroke-opacity:1;stroke-miterlimit:10;" d="M 170.53125 -96.1 L 170.59375 -92.1 M 169.09375 -92.078125 L 170.53125 -96.1 L 172.09375 -92.125 " transform="matrix(1.25,0,0,1.25,50,123.75)"/>
<path style="fill:none;stroke-width:1;stroke-linecap:round;stroke-linejoin:round;stroke:rgb(0%,0%,0%);stroke-opacity:1;stroke-dasharray:4,4;stroke-miterlimit:10;" d="M -39.4 -10.15 L 76.5 -10.15 L 76.5 83.4 L -39.4 83.4 Z M -39.4 -10.15 " transform="matrix(1.25,0,0,1.25,50,123.75)"/>
<path style=" stroke:none;fill-rule:nonzero;fill:rgb(69.803922%,85.098039%,100%);fill-opacity:1;" d="M 14.90625 213.6875 L 132.40625 213.6875 L 132.40625 191.1875 L 14.90625 191.1875 Z M 14.90625 213.6875 "/>
<path style="fill:none;stroke-width:1;stroke-linecap:round;stroke-linejoin:round;stroke:rgb(0%,0%,0%);stroke-opacity:1;stroke-miterlimit:10;" d="M -28.075 53.95 L 65.925 53.95 L 65.925 71.95 L -28.075 71.95 Z M -28.075 53.95 " transform="matrix(1.25,0,0,1.25,50,123.75)"/>
<path style=" stroke:none;fill-rule:nonzero;fill:rgb(0%,0%,0%);fill-opacity:1;" d="M 60.003906 202.085938 C 60.355469 202.496094 60.765625 203.0625 61.253906 203.765625 L 61.722656 203.082031 C 61.136719 202.398438 60.570312 201.792969 60.003906 201.246094 L 60.003906 200.601562 L 61.488281 200.601562 L 61.488281 199.820312 L 60.003906 199.820312 L 60.003906 197.632812 L 59.203125 197.632812 L 59.203125 199.820312 L 57.425781 199.820312 L 57.425781 200.601562 L 59.183594 200.601562 C 58.792969 202.007812 58.128906 203.257812 57.191406 204.351562 L 57.5625 205.269531 C 58.246094 204.3125 58.792969 203.238281 59.203125 202.046875 L 59.203125 207.886719 L 60.003906 207.886719 Z M 66.039062 199.078125 C 65.765625 200.835938 65.238281 202.398438 64.4375 203.746094 C 63.617188 202.359375 63.128906 200.816406 63.011719 199.078125 Z M 63.949219 204.46875 C 63.1875 205.523438 62.210938 206.460938 61.039062 207.242188 L 61.546875 207.886719 C 62.679688 207.144531 63.65625 206.246094 64.4375 205.171875 C 65.140625 206.167969 66.019531 207.066406 67.09375 207.90625 L 67.640625 207.242188 C 66.527344 206.421875 65.628906 205.503906 64.90625 204.488281 C 65.863281 202.984375 66.507812 201.167969 66.820312 199.078125 L 66.820312 198.316406 L 61.761719 198.316406 L 61.761719 199.078125 L 62.210938 199.078125 C 62.367188 201.050781 62.953125 202.847656 63.949219 204.46875 Z M 63.949219 204.46875 "/>
<path style=" stroke:none;fill-rule:nonzero;fill:rgb(0%,0%,0%);fill-opacity:1;" d="M 69.769531 200.933594 L 69.769531 204.664062 L 73.246094 204.664062 L 73.246094 205.445312 L 69.242188 205.445312 L 69.242188 206.089844 L 73.246094 206.089844 L 73.246094 206.929688 L 68.675781 206.929688 L 68.675781 207.652344 L 78.636719 207.652344 L 78.636719 206.929688 L 74.046875 206.929688 L 74.046875 206.089844 L 78.070312 206.089844 L 78.070312 205.445312 L 74.046875 205.445312 L 74.046875 204.664062 L 77.542969 204.664062 L 77.542969 200.933594 L 74.046875 200.933594 L 74.046875 200.210938 L 78.480469 200.210938 L 78.480469 199.507812 L 74.046875 199.507812 L 74.046875 198.648438 C 75.296875 198.570312 76.46875 198.492188 77.542969 198.375 L 77.308594 197.691406 C 75.0625 197.945312 72.484375 198.121094 69.554688 198.199219 L 69.691406 198.863281 C 70.921875 198.824219 72.113281 198.765625 73.246094 198.707031 L 73.246094 199.507812 L 68.832031 199.507812 L 68.832031 200.210938 L 73.246094 200.210938 L 73.246094 200.933594 Z M 76.742188 204.019531 L 74.046875 204.019531 L 74.046875 203.101562 L 76.742188 203.101562 Z M 73.246094 204.019531 L 70.53125 204.019531 L 70.53125 203.101562 L 73.246094 203.101562 Z M 70.53125 202.476562 L 70.53125 201.578125 L 73.246094 201.578125 L 73.246094 202.476562 Z M 74.046875 201.578125 L 76.742188 201.578125 L 76.742188 202.476562 L 74.046875 202.476562 Z M 74.046875 201.578125 "/>
<path style=" stroke:none;fill-rule:nonzero;fill:rgb(0%,0%,0%);fill-opacity:1;" d="M 82.933594 201.929688 L 82.933594 202.652344 L 89.027344 202.652344 L 89.027344 201.929688 Z M 82.132812 203.765625 L 82.132812 204.507812 L 84.59375 204.507812 C 83.8125 205.777344 83.148438 206.558594 82.660156 206.851562 C 82.601562 206.871094 82.5625 206.910156 82.484375 206.929688 L 82.660156 207.613281 C 84.789062 207.476562 86.742188 207.28125 88.519531 207.046875 C 88.753906 207.320312 88.949219 207.613281 89.144531 207.90625 L 89.789062 207.457031 C 89.300781 206.734375 88.578125 205.875 87.660156 204.898438 L 87.054688 205.269531 C 87.386719 205.660156 87.71875 206.03125 88.03125 206.402344 C 86.585938 206.617188 85.121094 206.773438 83.636719 206.871094 C 84.164062 206.402344 84.769531 205.601562 85.453125 204.507812 L 89.769531 204.507812 L 89.769531 203.765625 Z M 88.402344 198.824219 L 88.402344 200.132812 L 81.78125 200.132812 L 81.78125 198.824219 Z M 81.78125 200.855469 L 89.183594 200.855469 L 89.183594 198.0625 L 81 198.0625 L 81 201.792969 C 80.980469 204.058594 80.589844 205.894531 79.808594 207.320312 L 80.394531 207.867188 C 81.3125 206.167969 81.78125 204.136719 81.78125 201.792969 Z M 81.78125 200.855469 "/>
<path style=" stroke:none;fill-rule:nonzero;fill:rgb(0%,0%,0%);fill-opacity:1;" d="M 75.824219 265.0625 L 75.824219 264.789062 C 75.648438 264.730469 75.570312 264.691406 75.492188 264.574219 L 73.8125 261.996094 L 74.945312 260.589844 C 75.160156 260.335938 75.394531 260.199219 75.746094 260.140625 L 75.746094 259.867188 L 73.851562 259.867188 L 73.851562 260.140625 L 74.085938 260.160156 C 74.339844 260.199219 74.417969 260.238281 74.417969 260.414062 C 74.417969 260.589844 74.300781 260.746094 73.988281 261.136719 L 73.597656 261.644531 C 73.539062 261.585938 73.5 261.527344 73.441406 261.46875 C 73.070312 260.980469 72.796875 260.511719 72.796875 260.355469 C 72.796875 260.21875 72.953125 260.160156 73.324219 260.140625 L 73.324219 259.867188 L 70.511719 259.867188 L 70.511719 260.140625 C 70.804688 260.199219 70.863281 260.238281 71.097656 260.589844 L 72.542969 262.796875 C 72.367188 263.011719 72.464844 262.894531 72.289062 263.109375 L 71.800781 263.753906 C 71.175781 264.59375 70.941406 264.769531 70.53125 264.789062 L 70.53125 265.0625 L 72.425781 265.0625 L 72.425781 264.789062 C 72.035156 264.769531 71.878906 264.691406 71.878906 264.515625 C 71.878906 264.339844 72.152344 263.890625 72.582031 263.363281 C 72.660156 263.285156 72.71875 263.207031 72.777344 263.148438 C 72.914062 263.382812 73.070312 263.617188 73.246094 263.851562 C 73.519531 264.242188 73.617188 264.4375 73.617188 264.574219 C 73.617188 264.710938 73.460938 264.769531 73.109375 264.789062 L 73.109375 265.0625 Z M 75.824219 265.0625 "/>
<path style="fill:none;stroke-width:1;stroke-linecap:round;stroke-linejoin:round;stroke:rgb(0%,0%,0%);stroke-opacity:1;stroke-miterlimit:10;" d="M 18.640625 99.05 L 18.809375 77.85 " transform="matrix(1.25,0,0,1.25,50,123.75)"/>
<path style="fill:none;stroke-width:1;stroke-linecap:butt;stroke-linejoin:miter;stroke:rgb(0%,0%,0%);stroke-opacity:1;stroke-miterlimit:10;" d="M 18.840625 73.85 L 18.809375 77.85 M 17.309375 77.840625 L 18.840625 73.85 L 20.309375 77.8625 " transform="matrix(1.25,0,0,1.25,50,123.75)"/>
<path style=" stroke:none;fill-rule:nonzero;fill:rgb(69.803922%,85.098039%,100%);fill-opacity:1;" d="M 14.90625 177.9375 L 132.40625 177.9375 L 132.40625 155.4375 L 14.90625 155.4375 Z M 14.90625 177.9375 "/>
<path style="fill:none;stroke-width:1;stroke-linecap:round;stroke-linejoin:round;stroke:rgb(0%,0%,0%);stroke-opacity:1;stroke-miterlimit:10;" d="M -28.075 25.35 L 65.925 25.35 L 65.925 43.35 L -28.075 43.35 Z M -28.075 25.35 " transform="matrix(1.25,0,0,1.25,50,123.75)"/>
<path style=" stroke:none;fill-rule:nonzero;fill:rgb(0%,0%,0%);fill-opacity:1;" d="M 54.359375 162.859375 L 54.359375 166.375 L 55.335938 166.375 L 55.667969 167.332031 L 53.929688 167.332031 L 53.929688 168.015625 L 55.042969 168.015625 C 54.925781 168.875 54.769531 169.558594 54.574219 170.066406 C 54.359375 170.613281 54.027344 171.101562 53.578125 171.550781 L 54.066406 172.195312 C 54.59375 171.667969 54.984375 171.082031 55.257812 170.417969 C 55.355469 170.164062 55.433594 169.890625 55.511719 169.558594 L 56.898438 169.558594 C 56.878906 170.339844 56.839844 170.828125 56.78125 171.042969 C 56.722656 171.257812 56.527344 171.355469 56.234375 171.375 L 55.550781 171.375 L 55.746094 172.078125 L 56.449219 172.078125 C 56.898438 172.058594 57.230469 171.902344 57.40625 171.570312 C 57.582031 171.257812 57.679688 170.359375 57.679688 168.894531 L 55.648438 168.894531 C 55.6875 168.621094 55.726562 168.347656 55.785156 168.015625 L 58.03125 168.015625 L 58.03125 167.332031 L 56.429688 167.332031 L 56.097656 166.375 L 57.542969 166.375 L 57.992188 166.921875 C 58.128906 166.726562 58.285156 166.492188 58.441406 166.238281 C 58.695312 167.410156 59.046875 168.445312 59.476562 169.324219 C 59.046875 170.183594 58.480469 170.886719 57.777344 171.453125 L 58.207031 172.15625 C 58.890625 171.609375 59.457031 170.925781 59.90625 170.125 C 60.375 170.945312 60.921875 171.589844 61.546875 172.078125 L 62.015625 171.394531 C 61.332031 170.925781 60.765625 170.222656 60.277344 169.34375 C 60.84375 168.074219 61.136719 166.511719 61.195312 164.675781 L 61.839844 164.675781 L 61.839844 163.914062 L 59.398438 163.914062 C 59.554688 163.328125 59.691406 162.683594 59.789062 162 L 59.046875 161.863281 C 58.792969 163.5625 58.363281 164.949219 57.71875 166.003906 L 57.71875 162.859375 L 56.234375 162.859375 C 56.351562 162.566406 56.449219 162.273438 56.507812 161.960938 L 55.707031 161.84375 C 55.648438 162.195312 55.570312 162.527344 55.453125 162.859375 Z M 58.890625 165.339844 C 58.988281 165.125 59.066406 164.890625 59.164062 164.675781 L 60.453125 164.675781 C 60.433594 166.121094 60.21875 167.390625 59.847656 168.464844 C 59.457031 167.566406 59.144531 166.53125 58.890625 165.339844 Z M 57.015625 165.769531 L 55.0625 165.769531 L 55.0625 164.949219 L 57.015625 164.949219 Z M 55.0625 164.34375 L 55.0625 163.464844 L 57.015625 163.464844 L 57.015625 164.34375 Z M 52.25 162.078125 L 51.722656 162.585938 C 52.464844 163.132812 53.03125 163.660156 53.460938 164.148438 L 53.988281 163.640625 C 53.5 163.113281 52.933594 162.605469 52.25 162.078125 Z M 52.09375 164.8125 L 51.546875 165.339844 C 52.230469 165.90625 52.757812 166.433594 53.167969 166.960938 L 53.695312 166.414062 C 53.265625 165.867188 52.71875 165.339844 52.09375 164.8125 Z M 53.109375 168.152344 C 52.699219 169.382812 52.25 170.59375 51.703125 171.785156 L 52.425781 172.078125 C 52.914062 170.945312 53.382812 169.714844 53.792969 168.40625 Z M 53.109375 168.152344 "/>
<path style=" stroke:none;fill-rule:nonzero;fill:rgb(0%,0%,0%);fill-opacity:1;" d="M 65.863281 165.144531 L 65.863281 165.925781 L 69.085938 165.925781 L 69.085938 167.664062 L 66.625 167.664062 L 66.625 172.195312 L 67.425781 172.195312 L 67.425781 171.570312 L 71.644531 171.570312 L 71.644531 172.175781 L 72.445312 172.175781 L 72.445312 167.664062 L 69.90625 167.664062 L 69.90625 165.925781 L 73.148438 165.925781 L 73.148438 165.144531 L 69.90625 165.144531 L 69.90625 163.269531 C 70.941406 163.132812 71.839844 162.917969 72.621094 162.644531 L 72.230469 161.941406 C 70.609375 162.488281 68.558594 162.761719 66.117188 162.761719 L 66.351562 163.503906 C 67.328125 163.503906 68.226562 163.464844 69.085938 163.386719 L 69.085938 165.144531 Z M 67.425781 170.808594 L 67.425781 168.425781 L 71.644531 168.425781 L 71.644531 170.808594 Z M 63.832031 162.019531 L 63.285156 162.566406 C 64.085938 163.09375 64.730469 163.601562 65.199219 164.070312 L 65.746094 163.523438 C 65.238281 163.015625 64.59375 162.527344 63.832031 162.019531 Z M 63.578125 164.714844 L 63.011719 165.261719 C 63.832031 165.847656 64.476562 166.414062 64.945312 166.941406 L 65.511719 166.375 C 64.984375 165.828125 64.339844 165.261719 63.578125 164.714844 Z M 64.90625 167.703125 C 64.4375 169.070312 63.851562 170.398438 63.207031 171.707031 L 64.007812 172.058594 C 64.59375 170.789062 65.140625 169.421875 65.628906 167.996094 Z M 64.90625 167.703125 "/>
<path style=" stroke:none;fill-rule:nonzero;fill:rgb(0%,0%,0%);fill-opacity:1;" d="M 76.039062 169.695312 C 77.113281 169.011719 78.128906 168.210938 79.085938 167.292969 L 79.085938 169.03125 C 79.085938 169.402344 78.929688 169.578125 78.617188 169.578125 C 78.285156 169.578125 77.972656 169.558594 77.679688 169.558594 L 77.894531 170.300781 L 78.910156 170.300781 C 79.515625 170.300781 79.828125 169.96875 79.828125 169.324219 L 79.828125 167.429688 C 80.511719 167.957031 81.351562 168.679688 82.328125 169.636719 L 82.796875 168.933594 C 81.78125 168.054688 80.804688 167.292969 79.828125 166.609375 L 79.828125 164.890625 C 80.941406 164.285156 81.9375 163.679688 82.835938 163.054688 L 82.835938 162.292969 L 75.863281 162.292969 L 75.863281 163.054688 L 81.625 163.054688 C 81.058594 163.425781 80.21875 163.894531 79.085938 164.441406 L 79.085938 166.375 C 78.011719 167.390625 76.917969 168.230469 75.746094 168.894531 Z M 83.03125 164.34375 L 83.03125 170.828125 L 75.53125 170.828125 L 75.53125 164.34375 L 74.75 164.34375 L 74.75 172.195312 L 75.53125 172.195312 L 75.53125 171.570312 L 83.03125 171.570312 L 83.03125 172.214844 L 83.8125 172.214844 L 83.8125 164.34375 Z M 76.742188 164.695312 L 76.15625 165.066406 C 76.800781 165.691406 77.328125 166.238281 77.71875 166.765625 L 78.34375 166.335938 C 77.972656 165.867188 77.445312 165.320312 76.742188 164.695312 Z M 81.859375 164.617188 C 81.449219 165.300781 80.921875 165.90625 80.335938 166.394531 L 80.921875 166.804688 C 81.527344 166.277344 82.074219 165.652344 82.523438 164.929688 Z M 81.859375 164.617188 "/>
<path style=" stroke:none;fill-rule:nonzero;fill:rgb(0%,0%,0%);fill-opacity:1;" d="M 92.308594 164.363281 L 93.96875 164.363281 C 93.929688 165.886719 93.695312 167.214844 93.246094 168.347656 C 92.796875 167.410156 92.445312 166.277344 92.171875 164.949219 Z M 92.875 169.167969 C 92.367188 170.125 91.683594 170.886719 90.804688 171.492188 L 91.214844 172.175781 C 92.054688 171.570312 92.757812 170.808594 93.304688 169.910156 C 93.851562 170.867188 94.535156 171.628906 95.316406 172.195312 L 95.765625 171.53125 C 94.945312 170.964844 94.261719 170.203125 93.675781 169.1875 C 94.320312 167.859375 94.652344 166.238281 94.710938 164.363281 L 95.453125 164.363281 L 95.453125 163.601562 L 92.484375 163.601562 C 92.5625 163.09375 92.660156 162.566406 92.71875 161.980469 L 91.9375 161.84375 C 91.703125 163.992188 91.253906 165.691406 90.589844 166.941406 L 91.097656 167.566406 C 91.332031 167.15625 91.566406 166.707031 91.761719 166.179688 C 92.074219 167.3125 92.445312 168.289062 92.875 169.167969 Z M 87.542969 167.097656 C 87.464844 167.332031 87.386719 167.566406 87.289062 167.820312 L 85.628906 167.820312 L 85.628906 168.523438 L 86.957031 168.523438 C 86.742188 168.972656 86.488281 169.421875 86.195312 169.929688 C 86.742188 170.125 87.25 170.339844 87.757812 170.554688 C 87.09375 170.925781 86.292969 171.238281 85.375 171.472656 L 85.765625 172.15625 C 86.878906 171.84375 87.816406 171.414062 88.558594 170.90625 C 89.222656 171.199219 89.808594 171.492188 90.296875 171.785156 L 90.726562 171.160156 C 90.238281 170.886719 89.730469 170.652344 89.183594 170.398438 C 89.769531 169.851562 90.179688 169.226562 90.433594 168.484375 L 90.433594 167.820312 L 88.070312 167.820312 C 88.148438 167.605469 88.226562 167.410156 88.304688 167.195312 Z M 88.441406 170.085938 C 88.03125 169.910156 87.601562 169.753906 87.152344 169.597656 C 87.386719 169.265625 87.582031 168.894531 87.757812 168.523438 L 89.691406 168.523438 C 89.4375 169.109375 89.007812 169.636719 88.441406 170.085938 Z M 86.527344 162.078125 L 85.882812 162.292969 C 86.15625 162.722656 86.410156 163.210938 86.644531 163.757812 L 87.230469 163.484375 C 87.015625 162.996094 86.800781 162.527344 86.527344 162.078125 Z M 89.945312 162.058594 C 89.75 162.527344 89.457031 162.996094 89.085938 163.484375 L 89.671875 163.777344 C 90.023438 163.308594 90.296875 162.820312 90.53125 162.3125 Z M 85.667969 164.03125 L 85.667969 164.734375 L 87.25 164.734375 C 86.917969 165.359375 86.3125 165.925781 85.453125 166.433594 L 85.84375 167.078125 C 86.800781 166.433594 87.484375 165.671875 87.855469 164.773438 L 87.855469 166.902344 L 88.617188 166.902344 L 88.617188 165.457031 C 89.007812 165.710938 89.496094 166.082031 90.0625 166.53125 L 90.472656 165.90625 C 89.847656 165.515625 89.222656 165.164062 88.617188 164.871094 L 88.617188 164.734375 L 90.648438 164.734375 L 90.648438 164.03125 L 88.617188 164.03125 L 88.617188 161.882812 L 87.855469 161.882812 L 87.855469 164.03125 Z M 85.667969 164.03125 "/>
<path style="fill:none;stroke-width:1;stroke-linecap:round;stroke-linejoin:round;stroke:rgb(0%,0%,0%);stroke-opacity:1;stroke-miterlimit:10;" d="M -28.075 -80.6 L 65.925 -80.6 L 65.925 -62.6 L -28.075 -62.6 Z M -28.075 -80.6 " transform="matrix(1.25,0,0,1.25,50,123.75)"/>
<path style=" stroke:none;fill-rule:nonzero;fill:rgb(0%,0%,0%);fill-opacity:1;" d="M 54.359375 30.421875 L 54.359375 33.9375 L 55.335938 33.9375 L 55.667969 34.894531 L 53.929688 34.894531 L 53.929688 35.578125 L 55.042969 35.578125 C 54.925781 36.4375 54.769531 37.121094 54.574219 37.628906 C 54.359375 38.175781 54.027344 38.664062 53.578125 39.113281 L 54.066406 39.757812 C 54.59375 39.230469 54.984375 38.644531 55.257812 37.980469 C 55.355469 37.726562 55.433594 37.453125 55.511719 37.121094 L 56.898438 37.121094 C 56.878906 37.902344 56.839844 38.390625 56.78125 38.605469 C 56.722656 38.820312 56.527344 38.917969 56.234375 38.9375 L 55.550781 38.9375 L 55.746094 39.640625 L 56.449219 39.640625 C 56.898438 39.621094 57.230469 39.464844 57.40625 39.132812 C 57.582031 38.820312 57.679688 37.921875 57.679688 36.457031 L 55.648438 36.457031 C 55.6875 36.183594 55.726562 35.910156 55.785156 35.578125 L 58.03125 35.578125 L 58.03125 34.894531 L 56.429688 34.894531 L 56.097656 33.9375 L 57.542969 33.9375 L 57.992188 34.484375 C 58.128906 34.289062 58.285156 34.054688 58.441406 33.800781 C 58.695312 34.972656 59.046875 36.007812 59.476562 36.886719 C 59.046875 37.746094 58.480469 38.449219 57.777344 39.015625 L 58.207031 39.71875 C 58.890625 39.171875 59.457031 38.488281 59.90625 37.6875 C 60.375 38.507812 60.921875 39.152344 61.546875 39.640625 L 62.015625 38.957031 C 61.332031 38.488281 60.765625 37.785156 60.277344 36.90625 C 60.84375 35.636719 61.136719 34.074219 61.195312 32.238281 L 61.839844 32.238281 L 61.839844 31.476562 L 59.398438 31.476562 C 59.554688 30.890625 59.691406 30.246094 59.789062 29.5625 L 59.046875 29.425781 C 58.792969 31.125 58.363281 32.511719 57.71875 33.566406 L 57.71875 30.421875 L 56.234375 30.421875 C 56.351562 30.128906 56.449219 29.835938 56.507812 29.523438 L 55.707031 29.40625 C 55.648438 29.757812 55.570312 30.089844 55.453125 30.421875 Z M 58.890625 32.902344 C 58.988281 32.6875 59.066406 32.453125 59.164062 32.238281 L 60.453125 32.238281 C 60.433594 33.683594 60.21875 34.953125 59.847656 36.027344 C 59.457031 35.128906 59.144531 34.09375 58.890625 32.902344 Z M 57.015625 33.332031 L 55.0625 33.332031 L 55.0625 32.511719 L 57.015625 32.511719 Z M 55.0625 31.90625 L 55.0625 31.027344 L 57.015625 31.027344 L 57.015625 31.90625 Z M 52.25 29.640625 L 51.722656 30.148438 C 52.464844 30.695312 53.03125 31.222656 53.460938 31.710938 L 53.988281 31.203125 C 53.5 30.675781 52.933594 30.167969 52.25 29.640625 Z M 52.09375 32.375 L 51.546875 32.902344 C 52.230469 33.46875 52.757812 33.996094 53.167969 34.523438 L 53.695312 33.976562 C 53.265625 33.429688 52.71875 32.902344 52.09375 32.375 Z M 53.109375 35.714844 C 52.699219 36.945312 52.25 38.15625 51.703125 39.347656 L 52.425781 39.640625 C 52.914062 38.507812 53.382812 37.277344 53.792969 35.96875 Z M 53.109375 35.714844 "/>
<path style=" stroke:none;fill-rule:nonzero;fill:rgb(0%,0%,0%);fill-opacity:1;" d="M 65.863281 32.707031 L 65.863281 33.488281 L 69.085938 33.488281 L 69.085938 35.226562 L 66.625 35.226562 L 66.625 39.757812 L 67.425781 39.757812 L 67.425781 39.132812 L 71.644531 39.132812 L 71.644531 39.738281 L 72.445312 39.738281 L 72.445312 35.226562 L 69.90625 35.226562 L 69.90625 33.488281 L 73.148438 33.488281 L 73.148438 32.707031 L 69.90625 32.707031 L 69.90625 30.832031 C 70.941406 30.695312 71.839844 30.480469 72.621094 30.207031 L 72.230469 29.503906 C 70.609375 30.050781 68.558594 30.324219 66.117188 30.324219 L 66.351562 31.066406 C 67.328125 31.066406 68.226562 31.027344 69.085938 30.949219 L 69.085938 32.707031 Z M 67.425781 38.371094 L 67.425781 35.988281 L 71.644531 35.988281 L 71.644531 38.371094 Z M 63.832031 29.582031 L 63.285156 30.128906 C 64.085938 30.65625 64.730469 31.164062 65.199219 31.632812 L 65.746094 31.085938 C 65.238281 30.578125 64.59375 30.089844 63.832031 29.582031 Z M 63.578125 32.277344 L 63.011719 32.824219 C 63.832031 33.410156 64.476562 33.976562 64.945312 34.503906 L 65.511719 33.9375 C 64.984375 33.390625 64.339844 32.824219 63.578125 32.277344 Z M 64.90625 35.265625 C 64.4375 36.632812 63.851562 37.960938 63.207031 39.269531 L 64.007812 39.621094 C 64.59375 38.351562 65.140625 36.984375 65.628906 35.558594 Z M 64.90625 35.265625 "/>
<path style=" stroke:none;fill-rule:nonzero;fill:rgb(0%,0%,0%);fill-opacity:1;" d="M 76.039062 37.257812 C 77.113281 36.574219 78.128906 35.773438 79.085938 34.855469 L 79.085938 36.59375 C 79.085938 36.964844 78.929688 37.140625 78.617188 37.140625 C 78.285156 37.140625 77.972656 37.121094 77.679688 37.121094 L 77.894531 37.863281 L 78.910156 37.863281 C 79.515625 37.863281 79.828125 37.53125 79.828125 36.886719 L 79.828125 34.992188 C 80.511719 35.519531 81.351562 36.242188 82.328125 37.199219 L 82.796875 36.496094 C 81.78125 35.617188 80.804688 34.855469 79.828125 34.171875 L 79.828125 32.453125 C 80.941406 31.847656 81.9375 31.242188 82.835938 30.617188 L 82.835938 29.855469 L 75.863281 29.855469 L 75.863281 30.617188 L 81.625 30.617188 C 81.058594 30.988281 80.21875 31.457031 79.085938 32.003906 L 79.085938 33.9375 C 78.011719 34.953125 76.917969 35.792969 75.746094 36.457031 Z M 83.03125 31.90625 L 83.03125 38.390625 L 75.53125 38.390625 L 75.53125 31.90625 L 74.75 31.90625 L 74.75 39.757812 L 75.53125 39.757812 L 75.53125 39.132812 L 83.03125 39.132812 L 83.03125 39.777344 L 83.8125 39.777344 L 83.8125 31.90625 Z M 76.742188 32.257812 L 76.15625 32.628906 C 76.800781 33.253906 77.328125 33.800781 77.71875 34.328125 L 78.34375 33.898438 C 77.972656 33.429688 77.445312 32.882812 76.742188 32.257812 Z M 81.859375 32.179688 C 81.449219 32.863281 80.921875 33.46875 80.335938 33.957031 L 80.921875 34.367188 C 81.527344 33.839844 82.074219 33.214844 82.523438 32.492188 Z M 81.859375 32.179688 "/>
<path style=" stroke:none;fill-rule:nonzero;fill:rgb(0%,0%,0%);fill-opacity:1;" d="M 92.308594 31.925781 L 93.96875 31.925781 C 93.929688 33.449219 93.695312 34.777344 93.246094 35.910156 C 92.796875 34.972656 92.445312 33.839844 92.171875 32.511719 Z M 92.875 36.730469 C 92.367188 37.6875 91.683594 38.449219 90.804688 39.054688 L 91.214844 39.738281 C 92.054688 39.132812 92.757812 38.371094 93.304688 37.472656 C 93.851562 38.429688 94.535156 39.191406 95.316406 39.757812 L 95.765625 39.09375 C 94.945312 38.527344 94.261719 37.765625 93.675781 36.75 C 94.320312 35.421875 94.652344 33.800781 94.710938 31.925781 L 95.453125 31.925781 L 95.453125 31.164062 L 92.484375 31.164062 C 92.5625 30.65625 92.660156 30.128906 92.71875 29.542969 L 91.9375 29.40625 C 91.703125 31.554688 91.253906 33.253906 90.589844 34.503906 L 91.097656 35.128906 C 91.332031 34.71875 91.566406 34.269531 91.761719 33.742188 C 92.074219 34.875 92.445312 35.851562 92.875 36.730469 Z M 87.542969 34.660156 C 87.464844 34.894531 87.386719 35.128906 87.289062 35.382812 L 85.628906 35.382812 L 85.628906 36.085938 L 86.957031 36.085938 C 86.742188 36.535156 86.488281 36.984375 86.195312 37.492188 C 86.742188 37.6875 87.25 37.902344 87.757812 38.117188 C 87.09375 38.488281 86.292969 38.800781 85.375 39.035156 L 85.765625 39.71875 C 86.878906 39.40625 87.816406 38.976562 88.558594 38.46875 C 89.222656 38.761719 89.808594 39.054688 90.296875 39.347656 L 90.726562 38.722656 C 90.238281 38.449219 89.730469 38.214844 89.183594 37.960938 C 89.769531 37.414062 90.179688 36.789062 90.433594 36.046875 L 90.433594 35.382812 L 88.070312 35.382812 C 88.148438 35.167969 88.226562 34.972656 88.304688 34.757812 Z M 88.441406 37.648438 C 88.03125 37.472656 87.601562 37.316406 87.152344 37.160156 C 87.386719 36.828125 87.582031 36.457031 87.757812 36.085938 L 89.691406 36.085938 C 89.4375 36.671875 89.007812 37.199219 88.441406 37.648438 Z M 86.527344 29.640625 L 85.882812 29.855469 C 86.15625 30.285156 86.410156 30.773438 86.644531 31.320312 L 87.230469 31.046875 C 87.015625 30.558594 86.800781 30.089844 86.527344 29.640625 Z M 89.945312 29.621094 C 89.75 30.089844 89.457031 30.558594 89.085938 31.046875 L 89.671875 31.339844 C 90.023438 30.871094 90.296875 30.382812 90.53125 29.875 Z M 85.667969 31.59375 L 85.667969 32.296875 L 87.25 32.296875 C 86.917969 32.921875 86.3125 33.488281 85.453125 33.996094 L 85.84375 34.640625 C 86.800781 33.996094 87.484375 33.234375 87.855469 32.335938 L 87.855469 34.464844 L 88.617188 34.464844 L 88.617188 33.019531 C 89.007812 33.273438 89.496094 33.644531 90.0625 34.09375 L 90.472656 33.46875 C 89.847656 33.078125 89.222656 32.726562 88.617188 32.433594 L 88.617188 32.296875 L 90.648438 32.296875 L 90.648438 31.59375 L 88.617188 31.59375 L 88.617188 29.445312 L 87.855469 29.445312 L 87.855469 31.59375 Z M 85.667969 31.59375 "/>
<path style="fill:none;stroke-width:1;stroke-linecap:round;stroke-linejoin:round;stroke:rgb(0%,0%,0%);stroke-opacity:1;stroke-miterlimit:10;" d="M -28.075 -3.25 L 65.925 -3.25 L 65.925 14.75 L -28.075 14.75 Z M -28.075 -3.25 " transform="matrix(1.25,0,0,1.25,50,123.75)"/>
<path style=" stroke:none;fill-rule:nonzero;fill:rgb(0%,0%,0%);fill-opacity:1;" d="M 60.003906 130.585938 C 60.355469 130.996094 60.765625 131.5625 61.253906 132.265625 L 61.722656 131.582031 C 61.136719 130.898438 60.570312 130.292969 60.003906 129.746094 L 60.003906 129.101562 L 61.488281 129.101562 L 61.488281 128.320312 L 60.003906 128.320312 L 60.003906 126.132812 L 59.203125 126.132812 L 59.203125 128.320312 L 57.425781 128.320312 L 57.425781 129.101562 L 59.183594 129.101562 C 58.792969 130.507812 58.128906 131.757812 57.191406 132.851562 L 57.5625 133.769531 C 58.246094 132.8125 58.792969 131.738281 59.203125 130.546875 L 59.203125 136.386719 L 60.003906 136.386719 Z M 66.039062 127.578125 C 65.765625 129.335938 65.238281 130.898438 64.4375 132.246094 C 63.617188 130.859375 63.128906 129.316406 63.011719 127.578125 Z M 63.949219 132.96875 C 63.1875 134.023438 62.210938 134.960938 61.039062 135.742188 L 61.546875 136.386719 C 62.679688 135.644531 63.65625 134.746094 64.4375 133.671875 C 65.140625 134.667969 66.019531 135.566406 67.09375 136.40625 L 67.640625 135.742188 C 66.527344 134.921875 65.628906 134.003906 64.90625 132.988281 C 65.863281 131.484375 66.507812 129.667969 66.820312 127.578125 L 66.820312 126.816406 L 61.761719 126.816406 L 61.761719 127.578125 L 62.210938 127.578125 C 62.367188 129.550781 62.953125 131.347656 63.949219 132.96875 Z M 63.949219 132.96875 "/>
<path style=" stroke:none;fill-rule:nonzero;fill:rgb(0%,0%,0%);fill-opacity:1;" d="M 69.769531 129.433594 L 69.769531 133.164062 L 73.246094 133.164062 L 73.246094 133.945312 L 69.242188 133.945312 L 69.242188 134.589844 L 73.246094 134.589844 L 73.246094 135.429688 L 68.675781 135.429688 L 68.675781 136.152344 L 78.636719 136.152344 L 78.636719 135.429688 L 74.046875 135.429688 L 74.046875 134.589844 L 78.070312 134.589844 L 78.070312 133.945312 L 74.046875 133.945312 L 74.046875 133.164062 L 77.542969 133.164062 L 77.542969 129.433594 L 74.046875 129.433594 L 74.046875 128.710938 L 78.480469 128.710938 L 78.480469 128.007812 L 74.046875 128.007812 L 74.046875 127.148438 C 75.296875 127.070312 76.46875 126.992188 77.542969 126.875 L 77.308594 126.191406 C 75.0625 126.445312 72.484375 126.621094 69.554688 126.699219 L 69.691406 127.363281 C 70.921875 127.324219 72.113281 127.265625 73.246094 127.207031 L 73.246094 128.007812 L 68.832031 128.007812 L 68.832031 128.710938 L 73.246094 128.710938 L 73.246094 129.433594 Z M 76.742188 132.519531 L 74.046875 132.519531 L 74.046875 131.601562 L 76.742188 131.601562 Z M 73.246094 132.519531 L 70.53125 132.519531 L 70.53125 131.601562 L 73.246094 131.601562 Z M 70.53125 130.976562 L 70.53125 130.078125 L 73.246094 130.078125 L 73.246094 130.976562 Z M 74.046875 130.078125 L 76.742188 130.078125 L 76.742188 130.976562 L 74.046875 130.976562 Z M 74.046875 130.078125 "/>
<path style=" stroke:none;fill-rule:nonzero;fill:rgb(0%,0%,0%);fill-opacity:1;" d="M 82.933594 130.429688 L 82.933594 131.152344 L 89.027344 131.152344 L 89.027344 130.429688 Z M 82.132812 132.265625 L 82.132812 133.007812 L 84.59375 133.007812 C 83.8125 134.277344 83.148438 135.058594 82.660156 135.351562 C 82.601562 135.371094 82.5625 135.410156 82.484375 135.429688 L 82.660156 136.113281 C 84.789062 135.976562 86.742188 135.78125 88.519531 135.546875 C 88.753906 135.820312 88.949219 136.113281 89.144531 136.40625 L 89.789062 135.957031 C 89.300781 135.234375 88.578125 134.375 87.660156 133.398438 L 87.054688 133.769531 C 87.386719 134.160156 87.71875 134.53125 88.03125 134.902344 C 86.585938 135.117188 85.121094 135.273438 83.636719 135.371094 C 84.164062 134.902344 84.769531 134.101562 85.453125 133.007812 L 89.769531 133.007812 L 89.769531 132.265625 Z M 88.402344 127.324219 L 88.402344 128.632812 L 81.78125 128.632812 L 81.78125 127.324219 Z M 81.78125 129.355469 L 89.183594 129.355469 L 89.183594 126.5625 L 81 126.5625 L 81 130.292969 C 80.980469 132.558594 80.589844 134.394531 79.808594 135.820312 L 80.394531 136.367188 C 81.3125 134.667969 81.78125 132.636719 81.78125 130.292969 Z M 81.78125 129.355469 "/>
<path style="fill:none;stroke-width:1;stroke-linecap:round;stroke-linejoin:round;stroke:rgb(0%,0%,0%);stroke-opacity:1;stroke-miterlimit:10;" d="M 18.925 53.95 L 18.925 49.25 " transform="matrix(1.25,0,0,1.25,50,123.75)"/>
<path style="fill:none;stroke-width:1;stroke-linecap:butt;stroke-linejoin:miter;stroke:rgb(0%,0%,0%);stroke-opacity:1;stroke-miterlimit:10;" d="M 18.925 45.25 L 18.925 49.25 M 17.425 49.25 L 18.925 45.25 L 20.425 49.25 " transform="matrix(1.25,0,0,1.25,50,123.75)"/>
<path style="fill:none;stroke-width:1;stroke-linecap:round;stroke-linejoin:round;stroke:rgb(0%,0%,0%);stroke-opacity:1;stroke-miterlimit:10;" d="M 18.925 25.35 L 18.925 20.65 " transform="matrix(1.25,0,0,1.25,50,123.75)"/>
<path style="fill:none;stroke-width:1;stroke-linecap:butt;stroke-linejoin:miter;stroke:rgb(0%,0%,0%);stroke-opacity:1;stroke-miterlimit:10;" d="M 18.925 16.65 L 18.925 20.65 M 17.425 20.65 L 18.925 16.65 L 20.425 20.65 " transform="matrix(1.25,0,0,1.25,50,123.75)"/>
<path style=" stroke:none;fill-rule:nonzero;fill:rgb(0%,0%,0%);fill-opacity:1;" d="M 53.375 97.488281 L 53.296875 97.859375 L 54.3125 97.859375 L 53.316406 102.585938 C 53.0625 103.796875 52.710938 104.402344 52.222656 104.402344 C 52.105469 104.402344 52.007812 104.324219 52.007812 104.226562 C 52.007812 104.109375 52.105469 104.050781 52.105469 103.894531 C 52.105469 103.660156 51.929688 103.484375 51.675781 103.484375 C 51.441406 103.484375 51.246094 103.699219 51.246094 103.953125 C 51.246094 104.34375 51.636719 104.636719 52.144531 104.636719 C 53.160156 104.636719 53.921875 103.542969 54.390625 101.453125 L 55.210938 97.859375 L 56.421875 97.859375 L 56.480469 97.488281 L 55.289062 97.488281 C 55.601562 95.710938 56.03125 94.929688 56.65625 94.929688 C 56.8125 94.929688 56.890625 94.988281 56.890625 95.085938 C 56.890625 95.183594 56.792969 95.242188 56.792969 95.417969 C 56.792969 95.691406 57.007812 95.867188 57.203125 95.867188 C 57.457031 95.867188 57.671875 95.632812 57.671875 95.378906 C 57.671875 94.96875 57.261719 94.675781 56.714844 94.675781 C 56.03125 94.675781 55.5625 95.066406 55.230469 95.554688 C 54.859375 96.082031 54.664062 96.707031 54.410156 97.488281 Z M 53.375 97.488281 "/>
<path style=" stroke:none;fill-rule:nonzero;fill:rgb(0%,0%,0%);fill-opacity:1;" d="M 59.453125 104.128906 C 57.871094 102.800781 57.539062 101.53125 57.539062 99.441406 C 57.539062 97.273438 57.890625 96.21875 59.453125 94.890625 L 59.355469 94.714844 C 57.558594 95.769531 56.582031 97.390625 56.582031 99.480469 C 56.582031 101.394531 57.539062 103.289062 59.316406 104.304688 Z M 59.453125 104.128906 "/>
<path style=" stroke:none;fill-rule:nonzero;fill:rgb(0%,0%,0%);fill-opacity:1;" d="M 65.230469 102.3125 L 65.230469 102.039062 C 65.054688 101.980469 64.976562 101.941406 64.898438 101.824219 L 63.21875 99.246094 L 64.351562 97.839844 C 64.566406 97.585938 64.800781 97.449219 65.152344 97.390625 L 65.152344 97.117188 L 63.257812 97.117188 L 63.257812 97.390625 L 63.492188 97.410156 C 63.746094 97.449219 63.824219 97.488281 63.824219 97.664062 C 63.824219 97.839844 63.707031 97.996094 63.394531 98.386719 L 63.003906 98.894531 C 62.945312 98.835938 62.90625 98.777344 62.847656 98.71875 C 62.476562 98.230469 62.203125 97.761719 62.203125 97.605469 C 62.203125 97.46875 62.359375 97.410156 62.730469 97.390625 L 62.730469 97.117188 L 59.917969 97.117188 L 59.917969 97.390625 C 60.210938 97.449219 60.269531 97.488281 60.503906 97.839844 L 61.949219 100.046875 C 61.773438 100.261719 61.871094 100.144531 61.695312 100.359375 L 61.207031 101.003906 C 60.582031 101.84375 60.347656 102.019531 59.9375 102.039062 L 59.9375 102.3125 L 61.832031 102.3125 L 61.832031 102.039062 C 61.441406 102.019531 61.285156 101.941406 61.285156 101.765625 C 61.285156 101.589844 61.558594 101.140625 61.988281 100.613281 C 62.066406 100.535156 62.125 100.457031 62.183594 100.398438 C 62.320312 100.632812 62.476562 100.867188 62.652344 101.101562 C 62.925781 101.492188 63.023438 101.6875 63.023438 101.824219 C 63.023438 101.960938 62.867188 102.019531 62.515625 102.039062 L 62.515625 102.3125 Z M 65.230469 102.3125 "/>
<path style=" stroke:none;fill-rule:nonzero;fill:rgb(0%,0%,0%);fill-opacity:1;" d="M 65.738281 94.890625 C 67.359375 96.179688 67.652344 97.46875 67.652344 99.558594 C 67.652344 101.746094 67.320312 102.800781 65.738281 104.128906 L 65.835938 104.304688 C 67.613281 103.210938 68.609375 101.609375 68.609375 99.539062 C 68.609375 97.625 67.59375 95.75 65.875 94.714844 Z M 65.738281 94.890625 "/>
<path style="fill:none;stroke-width:1;stroke-linecap:round;stroke-linejoin:round;stroke:rgb(0%,0%,0%);stroke-opacity:1;stroke-miterlimit:10;" d="M 18.95 -80.6 L 18.984375 -91.6 " transform="matrix(1.25,0,0,1.25,50,123.75)"/>
<path style="fill:none;stroke-width:1;stroke-linecap:butt;stroke-linejoin:miter;stroke:rgb(0%,0%,0%);stroke-opacity:1;stroke-miterlimit:10;" d="M 18.996875 -95.6 L 18.984375 -91.6 M 17.484375 -91.60625 L 18.996875 -95.6 L 20.484375 -91.59375 " transform="matrix(1.25,0,0,1.25,50,123.75)"/>
<path style="fill:none;stroke-width:1;stroke-linecap:round;stroke-linejoin:round;stroke:rgb(0%,0%,0%);stroke-opacity:1;stroke-miterlimit:10;" d="M 18.925 -3.25 L 18.925 -56.7 " transform="matrix(1.25,0,0,1.25,50,123.75)"/>
<path style="fill:none;stroke-width:1;stroke-linecap:butt;stroke-linejoin:miter;stroke:rgb(0%,0%,0%);stroke-opacity:1;stroke-miterlimit:10;" d="M 18.925 -60.7 L 18.925 -56.7 M 17.425 -56.7 L 18.925 -60.7 L 20.425 -56.7 " transform="matrix(1.25,0,0,1.25,50,123.75)"/>
</g>
</svg>
